<svg width="200" height="180" viewBox="0 0 200 180" fill="none" xmlns="http://www.w3.org/2000/svg">
<path d="M192 0H8C3.58172 0 0 3.58172 0 8V172C0 176.418 3.58172 180 8 180H192C196.418 180 200 176.418 200 172V8C200 3.58172 196.418 0 192 0Z" fill="#EDE7DF"/>
<path d="M73.6477 35.2727C73.5795 34.697 73.303 34.25 72.8182 33.9318C72.3333 33.6136 71.7386 33.4545 71.0341 33.4545C70.5189 33.4545 70.0682 33.5379 69.6818 33.7045C69.2992 33.8712 69 34.1004 68.7841 34.392C68.572 34.6837 68.4659 35.0152 68.4659 35.3864C68.4659 35.697 68.5398 35.964 68.6875 36.1875C68.839 36.4072 69.0322 36.5909 69.267 36.7386C69.5019 36.8826 69.7481 37.0019 70.0057 37.0966C70.2633 37.1875 70.5 37.2614 70.7159 37.3182L71.8977 37.6364C72.2008 37.7159 72.5379 37.8258 72.9091 37.9659C73.2841 38.1061 73.642 38.2973 73.983 38.5398C74.3277 38.7784 74.6117 39.0852 74.8352 39.4602C75.0587 39.8352 75.1705 40.2955 75.1705 40.8409C75.1705 41.4697 75.0057 42.0379 74.6761 42.5455C74.3504 43.053 73.8731 43.4564 73.2443 43.7557C72.6193 44.0549 71.8598 44.2045 70.9659 44.2045C70.1326 44.2045 69.411 44.0701 68.8011 43.8011C68.1951 43.5322 67.7178 43.1572 67.3693 42.6761C67.0246 42.1951 66.8295 41.6364 66.7841 41H68.2386C68.2765 41.4394 68.4242 41.803 68.6818 42.0909C68.9432 42.375 69.2727 42.5871 69.6705 42.7273C70.072 42.8636 70.5038 42.9318 70.9659 42.9318C71.5038 42.9318 71.9867 42.8447 72.4148 42.6705C72.8428 42.4924 73.1818 42.2462 73.4318 41.9318C73.6818 41.6136 73.8068 41.2424 73.8068 40.8182C73.8068 40.4318 73.6989 40.1174 73.483 39.875C73.267 39.6326 72.983 39.4356 72.6307 39.2841C72.2784 39.1326 71.8977 39 71.4886 38.8864L70.0568 38.4773C69.1477 38.2159 68.428 37.8428 67.8977 37.358C67.3674 36.8731 67.1023 36.2386 67.1023 35.4545C67.1023 34.803 67.2784 34.2348 67.6307 33.75C67.9867 33.2614 68.464 32.8826 69.0625 32.6136C69.6648 32.3409 70.3371 32.2045 71.0795 32.2045C71.8295 32.2045 72.4962 32.339 73.0795 32.608C73.6629 32.8731 74.125 33.2367 74.4659 33.6989C74.8106 34.161 74.9924 34.6856 75.0114 35.2727H73.6477ZM79.6009 44L76.419 32.3636H77.8509L80.2827 41.8409H80.3963L82.8736 32.3636H84.4645L86.9418 41.8409H87.0554L89.4872 32.3636H90.919L87.7372 44H86.2827L83.7145 34.7273H83.6236L81.0554 44H79.6009ZM92.2457 44H90.7685L95.0412 32.3636H96.4957L100.768 44H99.2912L95.8139 34.2045H95.723L92.2457 44ZM92.7912 39.4545H98.7457V40.7045H92.7912V39.4545ZM109.989 36C109.864 35.6174 109.699 35.2746 109.494 34.9716C109.294 34.6648 109.053 34.4034 108.773 34.1875C108.496 33.9716 108.182 33.8068 107.83 33.6932C107.477 33.5795 107.091 33.5227 106.67 33.5227C105.981 33.5227 105.354 33.7008 104.79 34.0568C104.225 34.4129 103.777 34.9375 103.443 35.6307C103.11 36.3239 102.943 37.1742 102.943 38.1818C102.943 39.1894 103.112 40.0398 103.449 40.733C103.786 41.4261 104.242 41.9508 104.818 42.3068C105.394 42.6629 106.042 42.8409 106.761 42.8409C107.428 42.8409 108.015 42.6989 108.523 42.4148C109.034 42.1269 109.432 41.7216 109.716 41.1989C110.004 40.6723 110.148 40.053 110.148 39.3409L110.58 39.4318H107.08V38.1818H111.511V39.4318C111.511 40.3902 111.307 41.2235 110.898 41.9318C110.492 42.6402 109.932 43.1894 109.216 43.5795C108.504 43.9659 107.686 44.1591 106.761 44.1591C105.731 44.1591 104.826 43.9167 104.045 43.4318C103.269 42.947 102.663 42.2576 102.227 41.3636C101.795 40.4697 101.58 39.4091 101.58 38.1818C101.58 37.2614 101.703 36.4337 101.949 35.6989C102.199 34.9602 102.551 34.3314 103.006 33.8125C103.46 33.2936 103.998 32.8958 104.619 32.6193C105.241 32.3428 105.924 32.2045 106.67 32.2045C107.284 32.2045 107.856 32.2973 108.386 32.483C108.92 32.6648 109.396 32.9242 109.812 33.2614C110.233 33.5947 110.583 33.9943 110.864 34.4602C111.144 34.9223 111.337 35.4356 111.443 36H109.989ZM123.152 32.3636V44H121.788L115.447 34.8636H115.334V44H113.925V32.3636H115.288L121.652 41.5227H121.766V32.3636H123.152ZM125.972 44V32.3636H132.994V33.6136H127.381V37.5455H132.631V38.7955H127.381V42.75H133.085V44H125.972Z" fill="#2C221A"/>
<path d="M66.1581 65.5703C66.1134 65.4148 66.0505 65.2773 65.9695 65.158C65.8886 65.0366 65.7895 64.9343 65.6723 64.8512C65.5573 64.766 65.4252 64.701 65.276 64.6562C65.129 64.6115 64.966 64.5891 64.787 64.5891C64.4525 64.5891 64.1585 64.6722 63.9049 64.8384C63.6535 65.0046 63.4575 65.2464 63.3169 65.5639C63.1762 65.8793 63.1059 66.2649 63.1059 66.7209C63.1059 67.1768 63.1752 67.5646 63.3137 67.8842C63.4521 68.2038 63.6482 68.4478 63.9017 68.6161C64.1553 68.7823 64.4546 68.8654 64.7998 68.8654C65.113 68.8654 65.3804 68.81 65.602 68.6992C65.8257 68.5863 65.9962 68.4276 66.1134 68.223C66.2327 68.0185 66.2923 67.7766 66.2923 67.4975L66.5736 67.5391H64.8861V66.4972H67.6251V67.3217C67.6251 67.897 67.5036 68.3913 67.2607 68.8047C67.0178 69.2159 66.6833 69.5334 66.2572 69.7571C65.8311 69.9787 65.3431 70.0895 64.7934 70.0895C64.1798 70.0895 63.6407 69.9542 63.1762 69.6836C62.7117 69.4109 62.3495 69.0241 62.0896 68.5234C61.8318 68.0206 61.7029 67.424 61.7029 66.7337C61.7029 66.2031 61.7796 65.7301 61.933 65.3146C62.0885 64.897 62.3058 64.5433 62.585 64.2536C62.8641 63.9638 63.189 63.7433 63.5597 63.592C63.9305 63.4407 64.3321 63.3651 64.7646 63.3651C65.1354 63.3651 65.4806 63.4194 65.8002 63.5281C66.1198 63.6346 66.4031 63.7859 66.6503 63.9819C66.8996 64.1779 67.1031 64.4112 67.2607 64.6818C67.4184 64.9503 67.5196 65.2464 67.5644 65.5703H66.1581ZM68.639 70V65.0909H69.959V65.9474H70.0101C70.0996 65.6428 70.2498 65.4126 70.4608 65.2571C70.6717 65.0994 70.9146 65.0206 71.1895 65.0206C71.2576 65.0206 71.3311 65.0249 71.41 65.0334C71.4888 65.0419 71.5581 65.0536 71.6177 65.0685V66.2766C71.5538 66.2575 71.4654 66.2404 71.3525 66.2255C71.2395 66.2106 71.1362 66.2031 71.0424 66.2031C70.8422 66.2031 70.6632 66.2468 70.5055 66.3342C70.35 66.4194 70.2264 66.5387 70.1348 66.6921C70.0453 66.8455 70.0005 67.0224 70.0005 67.2227V70H68.639ZM74.3112 70.0959C73.8147 70.0959 73.3854 69.9904 73.0232 69.7795C72.6631 69.5664 72.385 69.2702 72.189 68.891C71.993 68.5096 71.895 68.0675 71.895 67.5646C71.895 67.0575 71.993 66.6143 72.189 66.2351C72.385 65.8537 72.6631 65.5575 73.0232 65.3466C73.3854 65.1335 73.8147 65.027 74.3112 65.027C74.8076 65.027 75.2359 65.1335 75.596 65.3466C75.9582 65.5575 76.2373 65.8537 76.4333 66.2351C76.6294 66.6143 76.7274 67.0575 76.7274 67.5646C76.7274 68.0675 76.6294 68.5096 76.4333 68.891C76.2373 69.2702 75.9582 69.5664 75.596 69.7795C75.2359 69.9904 74.8076 70.0959 74.3112 70.0959ZM74.3176 69.0412C74.5434 69.0412 74.732 68.9773 74.8833 68.8494C75.0345 68.7195 75.1485 68.5426 75.2252 68.3189C75.3041 68.0952 75.3435 67.8406 75.3435 67.555C75.3435 67.2695 75.3041 67.0149 75.2252 66.7912C75.1485 66.5675 75.0345 66.3906 74.8833 66.2607C74.732 66.1307 74.5434 66.0657 74.3176 66.0657C74.0896 66.0657 73.8978 66.1307 73.7423 66.2607C73.5889 66.3906 73.4727 66.5675 73.3939 66.7912C73.3172 67.0149 73.2789 67.2695 73.2789 67.555C73.2789 67.8406 73.3172 68.0952 73.3939 68.3189C73.4727 68.5426 73.5889 68.7195 73.7423 68.8494C73.8978 68.9773 74.0896 69.0412 74.3176 69.0412ZM78.458 70L77.1221 65.0909H78.4996L79.2602 68.3892H79.305L80.0976 65.0909H81.4495L82.2549 68.37H82.2964L83.0443 65.0909H84.4186L83.0858 70H81.6444L80.8007 66.9126H80.74L79.8962 70H78.458ZM85.1449 70V65.0909H86.5064V70H85.1449ZM85.8288 64.4581C85.6264 64.4581 85.4528 64.391 85.3079 64.2567C85.1651 64.1204 85.0938 63.9574 85.0938 63.7678C85.0938 63.5803 85.1651 63.4194 85.3079 63.2852C85.4528 63.1488 85.6264 63.0806 85.8288 63.0806C86.0313 63.0806 86.2038 63.1488 86.3466 63.2852C86.4915 63.4194 86.5639 63.5803 86.5639 63.7678C86.5639 63.9574 86.4915 64.1204 86.3466 64.2567C86.2038 64.391 86.0313 64.4581 85.8288 64.4581ZM88.9585 67.1619V70H87.597V65.0909H88.8946V65.957H88.9521C89.0608 65.6715 89.243 65.4457 89.4987 65.2795C89.7544 65.1112 90.0644 65.027 90.4287 65.027C90.7696 65.027 91.0669 65.1016 91.3204 65.2507C91.574 65.3999 91.771 65.6129 91.9117 65.8899C92.0523 66.1648 92.1226 66.4929 92.1226 66.8743V70H90.7611V67.1172C90.7632 66.8168 90.6865 66.5824 90.531 66.4141C90.3754 66.2436 90.1613 66.1584 89.8886 66.1584C89.7053 66.1584 89.5434 66.1978 89.4028 66.2766C89.2643 66.3555 89.1556 66.4705 89.0768 66.6218C89.0001 66.771 88.9607 66.951 88.9585 67.1619ZM95.4073 71.9432C94.9663 71.9432 94.5881 71.8825 94.2727 71.761C93.9595 71.6417 93.7102 71.4787 93.5249 71.272C93.3395 71.0653 93.2191 70.8331 93.1637 70.5753L94.4229 70.4059C94.4613 70.5039 94.522 70.5955 94.6051 70.6808C94.6882 70.766 94.7979 70.8342 94.9343 70.8853C95.0728 70.9386 95.2411 70.9652 95.4393 70.9652C95.7354 70.9652 95.9794 70.8928 96.1712 70.7479C96.3651 70.6051 96.462 70.3654 96.462 70.0288V69.1307H96.4045C96.3448 69.267 96.2553 69.396 96.136 69.5174C96.0167 69.6388 95.8633 69.7379 95.6758 69.8146C95.4883 69.8913 95.2646 69.9297 95.0046 69.9297C94.636 69.9297 94.3004 69.8445 93.9979 69.674C93.6974 69.5014 93.4577 69.2383 93.2788 68.8846C93.1019 68.5288 93.0135 68.0792 93.0135 67.5359C93.0135 66.9798 93.104 66.5153 93.2852 66.1424C93.4663 65.7695 93.707 65.4904 94.0075 65.305C94.31 65.1197 94.6413 65.027 95.0014 65.027C95.2763 65.027 95.5064 65.0739 95.6918 65.1676C95.8771 65.2592 96.0263 65.3743 96.1392 65.5128C96.2543 65.6491 96.3427 65.7834 96.4045 65.9155H96.4556V65.0909H97.8075V70.0479C97.8075 70.4656 97.7053 70.815 97.5007 71.0962C97.2962 71.3775 97.0128 71.5884 96.6506 71.729C96.2905 71.8718 95.8761 71.9432 95.4073 71.9432ZM95.4361 68.907C95.6555 68.907 95.8409 68.8526 95.9922 68.744C96.1456 68.6332 96.2628 68.4755 96.3438 68.271C96.4268 68.0643 96.4684 67.8171 96.4684 67.5295C96.4684 67.2418 96.4279 66.9925 96.3469 66.7816C96.266 66.5685 96.1488 66.4034 95.9954 66.2862C95.842 66.169 95.6555 66.1104 95.4361 66.1104C95.2124 66.1104 95.0238 66.1712 94.8704 66.2926C94.717 66.4119 94.6009 66.5781 94.522 66.7912C94.4432 67.0043 94.4038 67.2504 94.4038 67.5295C94.4038 67.8129 94.4432 68.0579 94.522 68.2646C94.603 68.4691 94.7191 68.6278 94.8704 68.7408C95.0238 68.8516 95.2124 68.907 95.4361 68.907ZM103.585 65.0909V66.1136H100.629V65.0909H103.585ZM101.3 63.9148H102.661V68.4915C102.661 68.6172 102.681 68.7152 102.719 68.7855C102.757 68.8537 102.811 68.9016 102.879 68.9293C102.949 68.957 103.03 68.9709 103.122 68.9709C103.186 68.9709 103.25 68.9656 103.313 68.9549C103.377 68.9421 103.426 68.9325 103.46 68.9261L103.675 69.9393C103.606 69.9606 103.511 69.9851 103.387 70.0128C103.263 70.0426 103.113 70.0607 102.936 70.0671C102.608 70.0799 102.321 70.0362 102.073 69.9361C101.828 69.8359 101.638 69.6804 101.501 69.4695C101.365 69.2585 101.298 68.9922 101.3 68.6705V63.9148ZM106.637 70.0959C106.141 70.0959 105.712 69.9904 105.349 69.7795C104.989 69.5664 104.711 69.2702 104.515 68.891C104.319 68.5096 104.221 68.0675 104.221 67.5646C104.221 67.0575 104.319 66.6143 104.515 66.2351C104.711 65.8537 104.989 65.5575 105.349 65.3466C105.712 65.1335 106.141 65.027 106.637 65.027C107.134 65.027 107.562 65.1335 107.922 65.3466C108.284 65.5575 108.563 65.8537 108.759 66.2351C108.956 66.6143 109.054 67.0575 109.054 67.5646C109.054 68.0675 108.956 68.5096 108.759 68.891C108.563 69.2702 108.284 69.5664 107.922 69.7795C107.562 69.9904 107.134 70.0959 106.637 70.0959ZM106.644 69.0412C106.87 69.0412 107.058 68.9773 107.209 68.8494C107.361 68.7195 107.475 68.5426 107.551 68.3189C107.63 68.0952 107.67 67.8406 107.67 67.555C107.67 67.2695 107.63 67.0149 107.551 66.7912C107.475 66.5675 107.361 66.3906 107.209 66.2607C107.058 66.1307 106.87 66.0657 106.644 66.0657C106.416 66.0657 106.224 66.1307 106.068 66.2607C105.915 66.3906 105.799 66.5675 105.72 66.7912C105.643 67.0149 105.605 67.2695 105.605 67.555C105.605 67.8406 105.643 68.0952 105.72 68.3189C105.799 68.5426 105.915 68.7195 106.068 68.8494C106.224 68.9773 106.416 69.0412 106.644 69.0412ZM112.15 71.9432C111.709 71.9432 111.331 71.8825 111.016 71.761C110.703 71.6417 110.453 71.4787 110.268 71.272C110.083 71.0653 109.962 70.8331 109.907 70.5753L111.166 70.4059C111.204 70.5039 111.265 70.5955 111.348 70.6808C111.431 70.766 111.541 70.8342 111.677 70.8853C111.816 70.9386 111.984 70.9652 112.182 70.9652C112.479 70.9652 112.723 70.8928 112.914 70.7479C113.108 70.6051 113.205 70.3654 113.205 70.0288V69.1307H113.148C113.088 69.267 112.998 69.396 112.879 69.5174C112.76 69.6388 112.606 69.7379 112.419 69.8146C112.231 69.8913 112.008 69.9297 111.748 69.9297C111.379 69.9297 111.044 69.8445 110.741 69.674C110.441 69.5014 110.201 69.2383 110.022 68.8846C109.845 68.5288 109.757 68.0792 109.757 67.5359C109.757 66.9798 109.847 66.5153 110.028 66.1424C110.209 65.7695 110.45 65.4904 110.751 65.305C111.053 65.1197 111.384 65.027 111.745 65.027C112.019 65.027 112.25 65.0739 112.435 65.1676C112.62 65.2592 112.769 65.3743 112.882 65.5128C112.997 65.6491 113.086 65.7834 113.148 65.9155H113.199V65.0909H114.551V70.0479C114.551 70.4656 114.448 70.815 114.244 71.0962C114.039 71.3775 113.756 71.5884 113.394 71.729C113.034 71.8718 112.619 71.9432 112.15 71.9432ZM112.179 68.907C112.399 68.907 112.584 68.8526 112.735 68.744C112.889 68.6332 113.006 68.4755 113.087 68.271C113.17 68.0643 113.212 67.8171 113.212 67.5295C113.212 67.2418 113.171 66.9925 113.09 66.7816C113.009 66.5685 112.892 66.4034 112.739 66.2862C112.585 66.169 112.399 66.1104 112.179 66.1104C111.956 66.1104 111.767 66.1712 111.614 66.2926C111.46 66.4119 111.344 66.5781 111.265 66.7912C111.186 67.0043 111.147 67.2504 111.147 67.5295C111.147 67.8129 111.186 68.0579 111.265 68.2646C111.346 68.4691 111.462 68.6278 111.614 68.7408C111.767 68.8516 111.956 68.907 112.179 68.907ZM117.871 70.0959C117.366 70.0959 116.932 69.9936 116.567 69.7891C116.205 69.5824 115.926 69.2905 115.73 68.9134C115.534 68.5341 115.436 68.0856 115.436 67.5678C115.436 67.0629 115.534 66.6197 115.73 66.2383C115.926 65.8569 116.202 65.5597 116.558 65.3466C116.916 65.1335 117.335 65.027 117.817 65.027C118.141 65.027 118.442 65.0792 118.722 65.1836C119.003 65.2859 119.248 65.4403 119.457 65.647C119.668 65.8537 119.832 66.1136 119.949 66.4268C120.066 66.7379 120.125 67.1023 120.125 67.5199V67.8938H115.979V67.0501H118.843C118.843 66.854 118.8 66.6804 118.715 66.5291C118.63 66.3778 118.512 66.2596 118.36 66.1744C118.211 66.087 118.038 66.0433 117.839 66.0433C117.633 66.0433 117.449 66.0913 117.29 66.1871C117.132 66.2809 117.008 66.4077 116.919 66.5675C116.829 66.7251 116.784 66.9009 116.782 67.0948V67.897C116.782 68.1399 116.826 68.3498 116.916 68.5266C117.007 68.7035 117.136 68.8398 117.302 68.9357C117.469 69.0316 117.666 69.0795 117.894 69.0795C118.045 69.0795 118.184 69.0582 118.309 69.0156C118.435 68.973 118.543 68.9091 118.632 68.8239C118.722 68.7386 118.79 68.6342 118.837 68.5107L120.096 68.5938C120.032 68.8963 119.901 69.1605 119.703 69.3864C119.507 69.6101 119.253 69.7848 118.942 69.9105C118.633 70.0341 118.276 70.0959 117.871 70.0959ZM123.624 65.0909V66.1136H120.668V65.0909H123.624ZM121.339 63.9148H122.701V68.4915C122.701 68.6172 122.72 68.7152 122.758 68.7855C122.796 68.8537 122.85 68.9016 122.918 68.9293C122.988 68.957 123.069 68.9709 123.161 68.9709C123.225 68.9709 123.289 68.9656 123.353 68.9549C123.416 68.9421 123.465 68.9325 123.5 68.9261L123.714 69.9393C123.646 69.9606 123.55 69.9851 123.426 70.0128C123.302 70.0426 123.152 70.0607 122.975 70.0671C122.647 70.0799 122.36 70.0362 122.112 69.9361C121.867 69.8359 121.677 69.6804 121.54 69.4695C121.404 69.2585 121.337 68.9922 121.339 68.6705V63.9148ZM125.978 67.1619V70H124.617V63.4545H125.94V65.957H125.997C126.108 65.6673 126.287 65.4403 126.534 65.2763C126.781 65.1101 127.091 65.027 127.464 65.027C127.805 65.027 128.102 65.1016 128.356 65.2507C128.612 65.3977 128.81 65.6097 128.95 65.8867C129.093 66.1616 129.163 66.4908 129.161 66.8743V70H127.8V67.1172C127.802 66.8146 127.725 66.5792 127.57 66.4109C127.416 66.2425 127.201 66.1584 126.924 66.1584C126.739 66.1584 126.575 66.1978 126.432 66.2766C126.291 66.3555 126.18 66.4705 126.1 66.6218C126.021 66.771 125.98 66.951 125.978 67.1619ZM132.47 70.0959C131.965 70.0959 131.53 69.9936 131.166 69.7891C130.804 69.5824 130.525 69.2905 130.329 68.9134C130.133 68.5341 130.035 68.0856 130.035 67.5678C130.035 67.0629 130.133 66.6197 130.329 66.2383C130.525 65.8569 130.801 65.5597 131.156 65.3466C131.514 65.1335 131.934 65.027 132.416 65.027C132.74 65.027 133.041 65.0792 133.32 65.1836C133.601 65.2859 133.846 65.4403 134.055 65.647C134.266 65.8537 134.43 66.1136 134.547 66.4268C134.665 66.7379 134.723 67.1023 134.723 67.5199V67.8938H130.578V67.0501H133.442C133.442 66.854 133.399 66.6804 133.314 66.5291C133.229 66.3778 133.11 66.2596 132.959 66.1744C132.81 66.087 132.636 66.0433 132.438 66.0433C132.231 66.0433 132.048 66.0913 131.888 66.1871C131.731 66.2809 131.607 66.4077 131.518 66.5675C131.428 66.7251 131.382 66.9009 131.38 67.0948V67.897C131.38 68.1399 131.425 68.3498 131.514 68.5266C131.606 68.7035 131.735 68.8398 131.901 68.9357C132.067 69.0316 132.264 69.0795 132.492 69.0795C132.644 69.0795 132.782 69.0582 132.908 69.0156C133.034 68.973 133.141 68.9091 133.231 68.8239C133.32 68.7386 133.388 68.6342 133.435 68.5107L134.694 68.5938C134.631 68.8963 134.499 69.1605 134.301 69.3864C134.105 69.6101 133.852 69.7848 133.541 69.9105C133.232 70.0341 132.875 70.0959 132.47 70.0959ZM135.612 70V65.0909H136.932V65.9474H136.983C137.072 65.6428 137.222 65.4126 137.433 65.2571C137.644 65.0994 137.887 65.0206 138.162 65.0206C138.23 65.0206 138.304 65.0249 138.383 65.0334C138.461 65.0419 138.531 65.0536 138.59 65.0685V66.2766C138.526 66.2575 138.438 66.2404 138.325 66.2255C138.212 66.2106 138.109 66.2031 138.015 66.2031C137.815 66.2031 137.636 66.2468 137.478 66.3342C137.323 66.4194 137.199 66.5387 137.107 66.6921C137.018 66.8455 136.973 67.0224 136.973 67.2227V70H135.612Z" fill="#2C2720"/>
<path d="M29.1899 92V100H28.2524L23.8931 93.7187H23.8149V100H22.8462V92H23.7837L28.1587 98.2969H28.2368V92H29.1899ZM33.519 100.125C32.9409 100.125 32.4422 99.9974 32.0229 99.7422C31.6063 99.4844 31.2847 99.125 31.0581 98.6641C30.8341 98.2005 30.7222 97.6615 30.7222 97.0469C30.7222 96.4323 30.8341 95.8906 31.0581 95.4219C31.2847 94.9505 31.5998 94.5833 32.0034 94.3203C32.4097 94.0547 32.8836 93.9219 33.4253 93.9219C33.7378 93.9219 34.0464 93.974 34.3511 94.0781C34.6558 94.1823 34.9331 94.3516 35.1831 94.5859C35.4331 94.8177 35.6323 95.125 35.7808 95.5078C35.9292 95.8906 36.0034 96.362 36.0034 96.9219V97.3125H31.3784V96.5156H35.0659C35.0659 96.1771 34.9982 95.875 34.8628 95.6094C34.73 95.3437 34.5399 95.1341 34.2925 94.9805C34.0477 94.8268 33.7586 94.75 33.4253 94.75C33.0581 94.75 32.7404 94.8411 32.4722 95.0234C32.2065 95.2031 32.0021 95.4375 31.8589 95.7266C31.7157 96.0156 31.644 96.3255 31.644 96.6562V97.1875C31.644 97.6406 31.7222 98.0247 31.8784 98.3398C32.0373 98.6523 32.2573 98.8906 32.5386 99.0547C32.8198 99.2161 33.1466 99.2969 33.519 99.2969C33.7612 99.2969 33.98 99.263 34.1753 99.1953C34.3732 99.125 34.5438 99.0208 34.687 98.8828C34.8302 98.7422 34.9409 98.5677 35.019 98.3594L35.9097 98.6094C35.8159 98.9115 35.6584 99.1771 35.437 99.4062C35.2157 99.6328 34.9422 99.8099 34.6167 99.9375C34.2912 100.063 33.9253 100.125 33.519 100.125ZM38.7651 100L36.937 94H37.9058L39.2026 98.5938H39.2651L40.5464 94H41.5308L42.7964 98.5781H42.8589L44.1558 94H45.1245L43.2964 100H42.3901L41.0776 95.3906H40.9839L39.6714 100H38.7651ZM52.0464 94V94.7812H48.937V94H52.0464ZM49.8433 92.5625H50.7651V98.2812C50.7651 98.5417 50.8029 98.737 50.8784 98.8672C50.9565 98.9948 51.0555 99.0807 51.1753 99.125C51.2977 99.1667 51.4266 99.1875 51.562 99.1875C51.6636 99.1875 51.7469 99.1823 51.812 99.1719C51.8771 99.1589 51.9292 99.1484 51.9683 99.1406L52.1558 99.9687C52.0933 99.9922 52.006 100.016 51.894 100.039C51.7821 100.065 51.6401 100.078 51.4683 100.078C51.2078 100.078 50.9526 100.022 50.7026 99.9102C50.4552 99.7982 50.2495 99.6276 50.0854 99.3984C49.924 99.1693 49.8433 98.8802 49.8433 98.5312V92.5625ZM55.8062 100.125C55.2645 100.125 54.7892 99.9961 54.3804 99.7383C53.9741 99.4805 53.6564 99.1198 53.4272 98.6562C53.2007 98.1927 53.0874 97.651 53.0874 97.0312C53.0874 96.4062 53.2007 95.8607 53.4272 95.3945C53.6564 94.9284 53.9741 94.5664 54.3804 94.3086C54.7892 94.0508 55.2645 93.9219 55.8062 93.9219C56.3478 93.9219 56.8218 94.0508 57.228 94.3086C57.6369 94.5664 57.9546 94.9284 58.1812 95.3945C58.4103 95.8607 58.5249 96.4062 58.5249 97.0312C58.5249 97.651 58.4103 98.1927 58.1812 98.6562C57.9546 99.1198 57.6369 99.4805 57.228 99.7383C56.8218 99.9961 56.3478 100.125 55.8062 100.125ZM55.8062 99.2969C56.2176 99.2969 56.5562 99.1914 56.8218 98.9805C57.0874 98.7695 57.284 98.4922 57.4116 98.1484C57.5392 97.8047 57.603 97.4323 57.603 97.0312C57.603 96.6302 57.5392 96.2565 57.4116 95.9102C57.284 95.5638 57.0874 95.2839 56.8218 95.0703C56.5562 94.8568 56.2176 94.75 55.8062 94.75C55.3947 94.75 55.0562 94.8568 54.7905 95.0703C54.5249 95.2839 54.3283 95.5638 54.2007 95.9102C54.0731 96.2565 54.0093 96.6302 54.0093 97.0312C54.0093 97.4323 54.0731 97.8047 54.2007 98.1484C54.3283 98.4922 54.5249 98.7695 54.7905 98.9805C55.0562 99.1914 55.3947 99.2969 55.8062 99.2969ZM62.3696 100.125C61.828 100.125 61.3527 99.9961 60.9438 99.7383C60.5376 99.4805 60.2199 99.1198 59.9907 98.6562C59.7642 98.1927 59.6509 97.651 59.6509 97.0312C59.6509 96.4062 59.7642 95.8607 59.9907 95.3945C60.2199 94.9284 60.5376 94.5664 60.9438 94.3086C61.3527 94.0508 61.828 93.9219 62.3696 93.9219C62.9113 93.9219 63.3853 94.0508 63.7915 94.3086C64.2004 94.5664 64.5181 94.9284 64.7446 95.3945C64.9738 95.8607 65.0884 96.4062 65.0884 97.0312C65.0884 97.651 64.9738 98.1927 64.7446 98.6562C64.5181 99.1198 64.2004 99.4805 63.7915 99.7383C63.3853 99.9961 62.9113 100.125 62.3696 100.125ZM62.3696 99.2969C62.7811 99.2969 63.1196 99.1914 63.3853 98.9805C63.6509 98.7695 63.8475 98.4922 63.9751 98.1484C64.1027 97.8047 64.1665 97.4323 64.1665 97.0312C64.1665 96.6302 64.1027 96.2565 63.9751 95.9102C63.8475 95.5638 63.6509 95.2839 63.3853 95.0703C63.1196 94.8568 62.7811 94.75 62.3696 94.75C61.9582 94.75 61.6196 94.8568 61.354 95.0703C61.0884 95.2839 60.8918 95.5638 60.7642 95.9102C60.6366 96.2565 60.5728 96.6302 60.5728 97.0312C60.5728 97.4323 60.6366 97.8047 60.7642 98.1484C60.8918 98.4922 61.0884 98.7695 61.354 98.9805C61.6196 99.1914 61.9582 99.2969 62.3696 99.2969ZM67.4175 92V100H66.4956V92H67.4175ZM73.356 95.3437L72.5278 95.5781C72.4757 95.4401 72.3989 95.306 72.2974 95.1758C72.1984 95.043 72.063 94.9336 71.8911 94.8477C71.7192 94.7617 71.4992 94.7187 71.231 94.7187C70.8638 94.7187 70.5578 94.8034 70.313 94.9727C70.0708 95.1393 69.9497 95.3516 69.9497 95.6094C69.9497 95.8385 70.033 96.0195 70.1997 96.1523C70.3664 96.2852 70.6268 96.3958 70.981 96.4844L71.8716 96.7031C72.408 96.8333 72.8078 97.0326 73.0708 97.3008C73.3338 97.5664 73.4653 97.9089 73.4653 98.3281C73.4653 98.6719 73.3664 98.9792 73.1685 99.25C72.9731 99.5208 72.6997 99.7344 72.3481 99.8906C71.9966 100.047 71.5877 100.125 71.1216 100.125C70.5096 100.125 70.0031 99.9922 69.6021 99.7266C69.201 99.4609 68.9471 99.0729 68.8403 98.5625L69.7153 98.3437C69.7987 98.6667 69.9562 98.9089 70.188 99.0703C70.4224 99.2318 70.7284 99.3125 71.106 99.3125C71.5356 99.3125 71.8768 99.2214 72.1294 99.0391C72.3846 98.8542 72.5122 98.6328 72.5122 98.375C72.5122 98.1667 72.4393 97.9922 72.2935 97.8516C72.1476 97.7083 71.9237 97.6016 71.6216 97.5312L70.6216 97.2969C70.0721 97.1667 69.6685 96.9648 69.4106 96.6914C69.1554 96.4154 69.0278 96.0703 69.0278 95.6562C69.0278 95.3177 69.1229 95.0182 69.313 94.7578C69.5057 94.4974 69.7674 94.293 70.0981 94.1445C70.4315 93.9961 70.8091 93.9219 71.231 93.9219C71.8247 93.9219 72.2909 94.0521 72.6294 94.3125C72.9705 94.5729 73.2127 94.9167 73.356 95.3437ZM79.7124 100.141C79.3322 100.141 78.9871 100.069 78.6772 99.9258C78.3674 99.7799 78.1213 99.5703 77.939 99.2969C77.7567 99.0208 77.6655 98.6875 77.6655 98.2969C77.6655 97.9531 77.7332 97.6745 77.8687 97.4609C78.0041 97.2448 78.1851 97.0755 78.4116 96.9531C78.6382 96.8307 78.8882 96.7396 79.1616 96.6797C79.4377 96.6172 79.715 96.5677 79.9937 96.5313C80.3582 96.4844 80.6538 96.4492 80.8804 96.4258C81.1095 96.3997 81.2762 96.3568 81.3804 96.2969C81.4871 96.237 81.5405 96.1328 81.5405 95.9844V95.9531C81.5405 95.5677 81.4351 95.2682 81.2241 95.0547C81.0158 94.8411 80.6994 94.7344 80.2749 94.7344C79.8348 94.7344 79.4897 94.8307 79.2397 95.0234C78.9897 95.2161 78.814 95.4219 78.7124 95.6406L77.8374 95.3281C77.9937 94.9635 78.202 94.6797 78.4624 94.4766C78.7254 94.2708 79.0119 94.1276 79.3218 94.0469C79.6343 93.9635 79.9416 93.9219 80.2437 93.9219C80.4364 93.9219 80.6577 93.9453 80.9077 93.9922C81.1603 94.0365 81.4038 94.1289 81.6382 94.2695C81.8752 94.4102 82.0718 94.6224 82.228 94.9062C82.3843 95.1901 82.4624 95.5703 82.4624 96.0469V100H81.5405V99.1875H81.4937C81.4312 99.3177 81.327 99.457 81.1812 99.6055C81.0353 99.7539 80.8413 99.8802 80.5991 99.9844C80.3569 100.089 80.0614 100.141 79.7124 100.141ZM79.853 99.3125C80.2176 99.3125 80.5249 99.2409 80.7749 99.0977C81.0275 98.9544 81.2176 98.7695 81.3452 98.543C81.4754 98.3164 81.5405 98.0781 81.5405 97.8281V96.9844C81.5015 97.0312 81.4155 97.0742 81.2827 97.1133C81.1525 97.1497 81.0015 97.1823 80.8296 97.2109C80.6603 97.237 80.495 97.2604 80.3335 97.2812C80.1746 97.2995 80.0457 97.3151 79.9468 97.3281C79.7072 97.3594 79.4832 97.4102 79.2749 97.4805C79.0692 97.5482 78.9025 97.651 78.7749 97.7891C78.6499 97.9245 78.5874 98.1094 78.5874 98.3437C78.5874 98.6641 78.7059 98.9062 78.9429 99.0703C79.1825 99.2318 79.4858 99.3125 79.853 99.3125ZM85.0669 96.3906V100H84.145V94H85.0356V94.9375H85.1138C85.2544 94.6328 85.4679 94.388 85.7544 94.2031C86.0409 94.0156 86.4106 93.9219 86.8638 93.9219C87.27 93.9219 87.6255 94.0052 87.9302 94.1719C88.2349 94.3359 88.4718 94.5859 88.6411 94.9219C88.8104 95.2552 88.895 95.6771 88.895 96.1875V100H87.9731V96.25C87.9731 95.7786 87.8507 95.4115 87.606 95.1484C87.3612 94.8828 87.0252 94.75 86.5981 94.75C86.3039 94.75 86.0409 94.8138 85.8091 94.9414C85.5799 95.069 85.3989 95.2552 85.2661 95.5C85.1333 95.7448 85.0669 96.0417 85.0669 96.3906ZM92.8452 100.125C92.3452 100.125 91.9038 99.9987 91.521 99.7461C91.1382 99.4909 90.8387 99.1315 90.6226 98.668C90.4064 98.2018 90.2983 97.651 90.2983 97.0156C90.2983 96.3854 90.4064 95.8385 90.6226 95.375C90.8387 94.9115 91.1395 94.5534 91.5249 94.3008C91.9103 94.0482 92.3556 93.9219 92.8608 93.9219C93.2515 93.9219 93.5601 93.987 93.7866 94.1172C94.0158 94.2448 94.1903 94.3906 94.3101 94.5547C94.4325 94.7161 94.5275 94.849 94.5952 94.9531H94.6733V92H95.5952V100H94.7046V99.0781H94.5952C94.5275 99.1875 94.4312 99.3255 94.3062 99.4922C94.1812 99.6562 94.0028 99.8034 93.771 99.9336C93.5392 100.061 93.2306 100.125 92.8452 100.125ZM92.9702 99.2969C93.34 99.2969 93.6525 99.2005 93.9077 99.0078C94.1629 98.8125 94.3569 98.543 94.4897 98.1992C94.6226 97.8529 94.689 97.4531 94.689 97C94.689 96.5521 94.6239 96.1602 94.4937 95.8242C94.3634 95.4857 94.1707 95.2227 93.9155 95.0352C93.6603 94.8451 93.3452 94.75 92.9702 94.75C92.5796 94.75 92.2541 94.8503 91.9937 95.0508C91.7358 95.2487 91.5418 95.5182 91.4116 95.8594C91.284 96.1979 91.2202 96.5781 91.2202 97C91.2202 97.4271 91.2853 97.8151 91.4155 98.1641C91.5483 98.5104 91.7437 98.7865 92.0015 98.9922C92.2619 99.1953 92.5848 99.2969 92.9702 99.2969ZM103.177 94V94.7812H99.9429V94H103.177ZM100.912 100V93.1719C100.912 92.8281 100.992 92.5417 101.154 92.3125C101.315 92.0833 101.525 91.9115 101.783 91.7969C102.041 91.6823 102.313 91.625 102.599 91.625C102.826 91.625 103.011 91.6432 103.154 91.6797C103.297 91.7161 103.404 91.75 103.474 91.7812L103.208 92.5781C103.162 92.5625 103.097 92.543 103.013 92.5195C102.932 92.4961 102.826 92.4844 102.693 92.4844C102.388 92.4844 102.168 92.5612 102.033 92.7148C101.9 92.8685 101.833 93.0937 101.833 93.3906V100H100.912ZM106.738 100.125C106.16 100.125 105.661 99.9974 105.242 99.7422C104.825 99.4844 104.503 99.125 104.277 98.6641C104.053 98.2005 103.941 97.6615 103.941 97.0469C103.941 96.4323 104.053 95.8906 104.277 95.4219C104.503 94.9505 104.819 94.5833 105.222 94.3203C105.628 94.0547 106.102 93.9219 106.644 93.9219C106.957 93.9219 107.265 93.974 107.57 94.0781C107.875 94.1823 108.152 94.3516 108.402 94.5859C108.652 94.8177 108.851 95.125 109 95.5078C109.148 95.8906 109.222 96.362 109.222 96.9219V97.3125H104.597V96.5156H108.285C108.285 96.1771 108.217 95.875 108.082 95.6094C107.949 95.3437 107.759 95.1341 107.511 94.9805C107.266 94.8268 106.977 94.75 106.644 94.75C106.277 94.75 105.959 94.8411 105.691 95.0234C105.425 95.2031 105.221 95.4375 105.078 95.7266C104.934 96.0156 104.863 96.3255 104.863 96.6562V97.1875C104.863 97.6406 104.941 98.0247 105.097 98.3398C105.256 98.6523 105.476 98.8906 105.757 99.0547C106.039 99.2161 106.365 99.2969 106.738 99.2969C106.98 99.2969 107.199 99.263 107.394 99.1953C107.592 99.125 107.763 99.0208 107.906 98.8828C108.049 98.7422 108.16 98.5677 108.238 98.3594L109.128 98.6094C109.035 98.9115 108.877 99.1771 108.656 99.4062C108.434 99.6328 108.161 99.8099 107.835 99.9375C107.51 100.063 107.144 100.125 106.738 100.125ZM112.39 100.141C112.01 100.141 111.665 100.069 111.355 99.9258C111.045 99.7799 110.799 99.5703 110.617 99.2969C110.434 99.0208 110.343 98.6875 110.343 98.2969C110.343 97.9531 110.411 97.6745 110.546 97.4609C110.682 97.2448 110.863 97.0755 111.089 96.9531C111.316 96.8307 111.566 96.7396 111.839 96.6797C112.115 96.6172 112.393 96.5677 112.671 96.5313C113.036 96.4844 113.332 96.4492 113.558 96.4258C113.787 96.3997 113.954 96.3568 114.058 96.2969C114.165 96.237 114.218 96.1328 114.218 95.9844V95.9531C114.218 95.5677 114.113 95.2682 113.902 95.0547C113.694 94.8411 113.377 94.7344 112.953 94.7344C112.513 94.7344 112.167 94.8307 111.917 95.0234C111.667 95.2161 111.492 95.4219 111.39 95.6406L110.515 95.3281C110.671 94.9635 110.88 94.6797 111.14 94.4766C111.403 94.2708 111.69 94.1276 112 94.0469C112.312 93.9635 112.619 93.9219 112.921 93.9219C113.114 93.9219 113.335 93.9453 113.585 93.9922C113.838 94.0365 114.082 94.1289 114.316 94.2695C114.553 94.4102 114.75 94.6224 114.906 94.9062C115.062 95.1901 115.14 95.5703 115.14 96.0469V100H114.218V99.1875H114.171C114.109 99.3177 114.005 99.457 113.859 99.6055C113.713 99.7539 113.519 99.8802 113.277 99.9844C113.035 100.089 112.739 100.141 112.39 100.141ZM112.531 99.3125C112.895 99.3125 113.203 99.2409 113.453 99.0977C113.705 98.9544 113.895 98.7695 114.023 98.543C114.153 98.3164 114.218 98.0781 114.218 97.8281V96.9844C114.179 97.0312 114.093 97.0742 113.96 97.1133C113.83 97.1497 113.679 97.1823 113.507 97.2109C113.338 97.237 113.173 97.2604 113.011 97.2812C112.852 97.2995 112.723 97.3151 112.625 97.3281C112.385 97.3594 112.161 97.4102 111.953 97.4805C111.747 97.5482 111.58 97.651 111.453 97.7891C111.328 97.9245 111.265 98.1094 111.265 98.3437C111.265 98.6641 111.384 98.9062 111.621 99.0703C111.86 99.2318 112.164 99.3125 112.531 99.3125ZM119.432 94V94.7812H116.323V94H119.432ZM117.229 92.5625H118.151V98.2812C118.151 98.5417 118.189 98.737 118.264 98.8672C118.342 98.9948 118.441 99.0807 118.561 99.125C118.683 99.1667 118.812 99.1875 118.948 99.1875C119.049 99.1875 119.133 99.1823 119.198 99.1719C119.263 99.1589 119.315 99.1484 119.354 99.1406L119.542 99.9687C119.479 99.9922 119.392 100.016 119.28 100.039C119.168 100.065 119.026 100.078 118.854 100.078C118.594 100.078 118.338 100.022 118.088 99.9102C117.841 99.7982 117.635 99.6276 117.471 99.3984C117.31 99.1693 117.229 98.8802 117.229 98.5312V92.5625ZM124.6 97.5469V94H125.522V100H124.6V98.9844H124.538C124.397 99.2891 124.178 99.5482 123.881 99.7617C123.584 99.9727 123.209 100.078 122.756 100.078C122.381 100.078 122.048 99.9961 121.756 99.832C121.465 99.6654 121.236 99.4154 121.069 99.082C120.902 98.7461 120.819 98.3229 120.819 97.8125V94H121.741V97.75C121.741 98.1875 121.863 98.5365 122.108 98.7969C122.355 99.0573 122.67 99.1875 123.053 99.1875C123.282 99.1875 123.515 99.1289 123.752 99.0117C123.992 98.8945 124.193 98.7148 124.354 98.4727C124.518 98.2305 124.6 97.9219 124.6 97.5469ZM127.21 100V94H128.101V94.9062H128.164C128.273 94.6094 128.471 94.3685 128.757 94.1836C129.044 93.9987 129.367 93.9062 129.726 93.9062C129.794 93.9062 129.878 93.9076 129.98 93.9102C130.082 93.9128 130.158 93.9167 130.21 93.9219V94.8594C130.179 94.8516 130.108 94.8398 129.996 94.8242C129.886 94.806 129.77 94.7969 129.648 94.7969C129.356 94.7969 129.096 94.8581 128.867 94.9805C128.64 95.1003 128.46 95.2669 128.328 95.4805C128.197 95.6914 128.132 95.9323 128.132 96.2031V100H127.21ZM133.636 100.125C133.058 100.125 132.559 99.9974 132.14 99.7422C131.723 99.4844 131.402 99.125 131.175 98.6641C130.951 98.2005 130.839 97.6615 130.839 97.0469C130.839 96.4323 130.951 95.8906 131.175 95.4219C131.402 94.9505 131.717 94.5833 132.121 94.3203C132.527 94.0547 133.001 93.9219 133.542 93.9219C133.855 93.9219 134.164 93.974 134.468 94.0781C134.773 94.1823 135.05 94.3516 135.3 94.5859C135.55 94.8177 135.75 95.125 135.898 95.5078C136.046 95.8906 136.121 96.362 136.121 96.9219V97.3125H131.496V96.5156H135.183C135.183 96.1771 135.115 95.875 134.98 95.6094C134.847 95.3437 134.657 95.1341 134.41 94.9805C134.165 94.8268 133.876 94.75 133.542 94.75C133.175 94.75 132.858 94.8411 132.589 95.0234C132.324 95.2031 132.119 95.4375 131.976 95.7266C131.833 96.0156 131.761 96.3255 131.761 96.6562V97.1875C131.761 97.6406 131.839 98.0247 131.996 98.3398C132.154 98.6523 132.375 98.8906 132.656 99.0547C132.937 99.2161 133.264 99.2969 133.636 99.2969C133.878 99.2969 134.097 99.263 134.292 99.1953C134.49 99.125 134.661 99.0208 134.804 98.8828C134.947 98.7422 135.058 98.5677 135.136 98.3594L136.027 98.6094C135.933 98.9115 135.776 99.1771 135.554 99.4062C135.333 99.6328 135.059 99.8099 134.734 99.9375C134.408 100.063 134.042 100.125 133.636 100.125ZM141.773 95.3437L140.945 95.5781C140.893 95.4401 140.816 95.306 140.714 95.1758C140.615 95.043 140.48 94.9336 140.308 94.8477C140.136 94.7617 139.916 94.7187 139.648 94.7187C139.281 94.7187 138.975 94.8034 138.73 94.9727C138.488 95.1393 138.367 95.3516 138.367 95.6094C138.367 95.8385 138.45 96.0195 138.617 96.1523C138.783 96.2852 139.044 96.3958 139.398 96.4844L140.289 96.7031C140.825 96.8333 141.225 97.0326 141.488 97.3008C141.751 97.5664 141.882 97.9089 141.882 98.3281C141.882 98.6719 141.783 98.9792 141.585 99.25C141.39 99.5208 141.117 99.7344 140.765 99.8906C140.414 100.047 140.005 100.125 139.539 100.125C138.927 100.125 138.42 99.9922 138.019 99.7266C137.618 99.4609 137.364 99.0729 137.257 98.5625L138.132 98.3437C138.216 98.6667 138.373 98.9089 138.605 99.0703C138.839 99.2318 139.145 99.3125 139.523 99.3125C139.953 99.3125 140.294 99.2214 140.546 99.0391C140.802 98.8542 140.929 98.6328 140.929 98.375C140.929 98.1667 140.856 97.9922 140.71 97.8516C140.565 97.7083 140.341 97.6016 140.039 97.5312L139.039 97.2969C138.489 97.1667 138.085 96.9648 137.828 96.6914C137.572 96.4154 137.445 96.0703 137.445 95.6562C137.445 95.3177 137.54 95.0182 137.73 94.7578C137.923 94.4974 138.184 94.293 138.515 94.1445C138.848 93.9961 139.226 93.9219 139.648 93.9219C140.242 93.9219 140.708 94.0521 141.046 94.3125C141.388 94.5729 141.63 94.9167 141.773 95.3437ZM148.129 100.141C147.749 100.141 147.404 100.069 147.094 99.9258C146.784 99.7799 146.538 99.5703 146.356 99.2969C146.174 99.0208 146.083 98.6875 146.083 98.2969C146.083 97.9531 146.15 97.6745 146.286 97.4609C146.421 97.2448 146.602 97.0755 146.829 96.9531C147.055 96.8307 147.305 96.7396 147.579 96.6797C147.855 96.6172 148.132 96.5677 148.411 96.5313C148.775 96.4844 149.071 96.4492 149.297 96.4258C149.527 96.3997 149.693 96.3568 149.797 96.2969C149.904 96.237 149.958 96.1328 149.958 95.9844V95.9531C149.958 95.5677 149.852 95.2682 149.641 95.0547C149.433 94.8411 149.116 94.7344 148.692 94.7344C148.252 94.7344 147.907 94.8307 147.657 95.0234C147.407 95.2161 147.231 95.4219 147.129 95.6406L146.254 95.3281C146.411 94.9635 146.619 94.6797 146.879 94.4766C147.142 94.2708 147.429 94.1276 147.739 94.0469C148.051 93.9635 148.359 93.9219 148.661 93.9219C148.853 93.9219 149.075 93.9453 149.325 93.9922C149.577 94.0365 149.821 94.1289 150.055 94.2695C150.292 94.4102 150.489 94.6224 150.645 94.9062C150.801 95.1901 150.879 95.5703 150.879 96.0469V100H149.958V99.1875H149.911C149.848 99.3177 149.744 99.457 149.598 99.6055C149.452 99.7539 149.258 99.8802 149.016 99.9844C148.774 100.089 148.478 100.141 148.129 100.141ZM148.27 99.3125C148.635 99.3125 148.942 99.2409 149.192 99.0977C149.444 98.9544 149.635 98.7695 149.762 98.543C149.892 98.3164 149.958 98.0781 149.958 97.8281V96.9844C149.918 97.0312 149.833 97.0742 149.7 97.1133C149.569 97.1497 149.418 97.1823 149.247 97.2109C149.077 97.237 148.912 97.2604 148.75 97.2812C148.592 97.2995 148.463 97.3151 148.364 97.3281C148.124 97.3594 147.9 97.4102 147.692 97.4805C147.486 97.5482 147.319 97.651 147.192 97.7891C147.067 97.9245 147.004 98.1094 147.004 98.3437C147.004 98.6641 147.123 98.9062 147.36 99.0703C147.599 99.2318 147.903 99.3125 148.27 99.3125ZM152.562 100V94H153.453V94.9062H153.515C153.625 94.6094 153.822 94.3685 154.109 94.1836C154.395 93.9987 154.718 93.9062 155.078 93.9062C155.145 93.9062 155.23 93.9076 155.332 93.9102C155.433 93.9128 155.51 93.9167 155.562 93.9219V94.8594C155.531 94.8516 155.459 94.8398 155.347 94.8242C155.238 94.806 155.122 94.7969 155 94.7969C154.708 94.7969 154.447 94.8581 154.218 94.9805C153.992 95.1003 153.812 95.2669 153.679 95.4805C153.549 95.6914 153.484 95.9323 153.484 96.2031V100H152.562ZM158.988 100.125C158.41 100.125 157.911 99.9974 157.492 99.7422C157.075 99.4844 156.753 99.125 156.527 98.6641C156.303 98.2005 156.191 97.6615 156.191 97.0469C156.191 96.4323 156.303 95.8906 156.527 95.4219C156.753 94.9505 157.069 94.5833 157.472 94.3203C157.878 94.0547 158.352 93.9219 158.894 93.9219C159.207 93.9219 159.515 93.974 159.82 94.0781C160.125 94.1823 160.402 94.3516 160.652 94.5859C160.902 94.8177 161.101 95.125 161.25 95.5078C161.398 95.8906 161.472 96.362 161.472 96.9219V97.3125H156.847V96.5156H160.535C160.535 96.1771 160.467 95.875 160.332 95.6094C160.199 95.3437 160.009 95.1341 159.761 94.9805C159.516 94.8268 159.227 94.75 158.894 94.75C158.527 94.75 158.209 94.8411 157.941 95.0234C157.675 95.2031 157.471 95.4375 157.328 95.7266C157.184 96.0156 157.113 96.3255 157.113 96.6562V97.1875C157.113 97.6406 157.191 98.0247 157.347 98.3398C157.506 98.6523 157.726 98.8906 158.007 99.0547C158.289 99.2161 158.615 99.2969 158.988 99.2969C159.23 99.2969 159.449 99.263 159.644 99.1953C159.842 99.125 160.013 99.0208 160.156 98.8828C160.299 98.7422 160.41 98.5677 160.488 98.3594L161.378 98.6094C161.285 98.9115 161.127 99.1771 160.906 99.4062C160.684 99.6328 160.411 99.8099 160.085 99.9375C159.76 100.063 159.394 100.125 158.988 100.125ZM168.406 100.125C167.864 100.125 167.389 99.9961 166.98 99.7383C166.574 99.4805 166.256 99.1198 166.027 98.6562C165.8 98.1927 165.687 97.651 165.687 97.0312C165.687 96.4062 165.8 95.8607 166.027 95.3945C166.256 94.9284 166.574 94.5664 166.98 94.3086C167.389 94.0508 167.864 93.9219 168.406 93.9219C168.947 93.9219 169.421 94.0508 169.828 94.3086C170.236 94.5664 170.554 94.9284 170.781 95.3945C171.01 95.8607 171.125 96.4062 171.125 97.0312C171.125 97.651 171.01 98.1927 170.781 98.6562C170.554 99.1198 170.236 99.4805 169.828 99.7383C169.421 99.9961 168.947 100.125 168.406 100.125ZM168.406 99.2969C168.817 99.2969 169.156 99.1914 169.421 98.9805C169.687 98.7695 169.884 98.4922 170.011 98.1484C170.139 97.8047 170.203 97.4323 170.203 97.0312C170.203 96.6302 170.139 96.2565 170.011 95.9102C169.884 95.5638 169.687 95.2839 169.421 95.0703C169.156 94.8568 168.817 94.75 168.406 94.75C167.994 94.75 167.656 94.8568 167.39 95.0703C167.125 95.2839 166.928 95.5638 166.8 95.9102C166.673 96.2565 166.609 96.6302 166.609 97.0312C166.609 97.4323 166.673 97.8047 166.8 98.1484C166.928 98.4922 167.125 98.7695 167.39 98.9805C167.656 99.1914 167.994 99.2969 168.406 99.2969ZM173.454 96.3906V100H172.532V94H173.422V94.9375H173.5C173.641 94.6328 173.855 94.388 174.141 94.2031C174.428 94.0156 174.797 93.9219 175.25 93.9219C175.657 93.9219 176.012 94.0052 176.317 94.1719C176.622 94.3359 176.859 94.5859 177.028 94.9219C177.197 95.2552 177.282 95.6771 177.282 96.1875V100H176.36V96.25C176.36 95.7786 176.237 95.4115 175.993 95.1484C175.748 94.8828 175.412 94.75 174.985 94.75C174.691 94.75 174.428 94.8138 174.196 94.9414C173.967 95.069 173.786 95.2552 173.653 95.5C173.52 95.7448 173.454 96.0417 173.454 96.3906Z" fill="#2C2720"/>
<path d="M79.2935 112V112.781H76.1841V112H79.2935ZM77.0903 110.562H78.0122V116.281C78.0122 116.542 78.05 116.737 78.1255 116.867C78.2036 116.995 78.3026 117.081 78.4224 117.125C78.5448 117.167 78.6737 117.187 78.8091 117.187C78.9106 117.187 78.994 117.182 79.0591 117.172C79.1242 117.159 79.1763 117.148 79.2153 117.141L79.4028 117.969C79.3403 117.992 79.2531 118.016 79.1411 118.039C79.0291 118.065 78.8872 118.078 78.7153 118.078C78.4549 118.078 78.1997 118.022 77.9497 117.91C77.7023 117.798 77.4966 117.628 77.3325 117.398C77.1711 117.169 77.0903 116.88 77.0903 116.531V110.562ZM81.731 114.391V118H80.8091V110H81.731V112.937H81.8091C81.9497 112.628 82.1606 112.382 82.4419 112.199C82.7257 112.014 83.1034 111.922 83.5747 111.922C83.9836 111.922 84.3416 112.004 84.6489 112.168C84.9562 112.329 85.1945 112.578 85.3638 112.914C85.5356 113.247 85.6216 113.672 85.6216 114.188V118H84.6997V114.25C84.6997 113.773 84.576 113.405 84.3286 113.145C84.0838 112.882 83.744 112.75 83.3091 112.75C83.007 112.75 82.7362 112.814 82.4966 112.941C82.2596 113.069 82.0721 113.255 81.9341 113.5C81.7987 113.745 81.731 114.042 81.731 114.391ZM89.8237 118.125C89.2456 118.125 88.7469 117.997 88.3276 117.742C87.911 117.484 87.5894 117.125 87.3628 116.664C87.1388 116.201 87.0269 115.661 87.0269 115.047C87.0269 114.432 87.1388 113.891 87.3628 113.422C87.5894 112.951 87.9045 112.583 88.3081 112.32C88.7144 112.055 89.1883 111.922 89.73 111.922C90.0425 111.922 90.3511 111.974 90.6558 112.078C90.9604 112.182 91.2378 112.352 91.4878 112.586C91.7378 112.818 91.937 113.125 92.0854 113.508C92.2339 113.891 92.3081 114.362 92.3081 114.922V115.312H87.6831V114.516H91.3706C91.3706 114.177 91.3029 113.875 91.1675 113.609C91.0347 113.344 90.8446 113.134 90.5972 112.98C90.3524 112.827 90.0633 112.75 89.73 112.75C89.3628 112.75 89.0451 112.841 88.7769 113.023C88.5112 113.203 88.3068 113.437 88.1636 113.727C88.0203 114.016 87.9487 114.326 87.9487 114.656V115.188C87.9487 115.641 88.0269 116.025 88.1831 116.34C88.342 116.652 88.562 116.891 88.8433 117.055C89.1245 117.216 89.4513 117.297 89.8237 117.297C90.0659 117.297 90.2847 117.263 90.48 117.195C90.6779 117.125 90.8485 117.021 90.9917 116.883C91.1349 116.742 91.2456 116.568 91.3237 116.359L92.2144 116.609C92.1206 116.911 91.9631 117.177 91.7417 117.406C91.5203 117.633 91.2469 117.81 90.9214 117.937C90.5959 118.063 90.23 118.125 89.8237 118.125ZM98.1636 118L96.3354 112H97.3042L98.6011 116.594H98.6636L99.9448 112H100.929L102.195 116.578H102.257L103.554 112H104.523L102.695 118H101.789L100.476 113.391H100.382L99.0698 118H98.1636ZM107.507 118.141C107.127 118.141 106.782 118.069 106.472 117.926C106.162 117.78 105.916 117.57 105.734 117.297C105.552 117.021 105.46 116.687 105.46 116.297C105.46 115.953 105.528 115.674 105.664 115.461C105.799 115.245 105.98 115.076 106.207 114.953C106.433 114.831 106.683 114.74 106.957 114.68C107.233 114.617 107.51 114.568 107.789 114.531C108.153 114.484 108.449 114.449 108.675 114.426C108.904 114.4 109.071 114.357 109.175 114.297C109.282 114.237 109.335 114.133 109.335 113.984V113.953C109.335 113.568 109.23 113.268 109.019 113.055C108.811 112.841 108.494 112.734 108.07 112.734C107.63 112.734 107.285 112.831 107.035 113.023C106.785 113.216 106.609 113.422 106.507 113.641L105.632 113.328C105.789 112.964 105.997 112.68 106.257 112.477C106.52 112.271 106.807 112.128 107.117 112.047C107.429 111.964 107.736 111.922 108.039 111.922C108.231 111.922 108.453 111.945 108.703 111.992C108.955 112.036 109.199 112.129 109.433 112.27C109.67 112.41 109.867 112.622 110.023 112.906C110.179 113.19 110.257 113.57 110.257 114.047V118H109.335V117.187H109.289C109.226 117.318 109.122 117.457 108.976 117.605C108.83 117.754 108.636 117.88 108.394 117.984C108.152 118.089 107.856 118.141 107.507 118.141ZM107.648 117.312C108.013 117.312 108.32 117.241 108.57 117.098C108.822 116.954 109.013 116.77 109.14 116.543C109.27 116.316 109.335 116.078 109.335 115.828V114.984C109.296 115.031 109.21 115.074 109.078 115.113C108.947 115.15 108.796 115.182 108.625 115.211C108.455 115.237 108.29 115.26 108.128 115.281C107.97 115.299 107.841 115.315 107.742 115.328C107.502 115.359 107.278 115.41 107.07 115.48C106.864 115.548 106.697 115.651 106.57 115.789C106.445 115.924 106.382 116.109 106.382 116.344C106.382 116.664 106.501 116.906 106.738 117.07C106.977 117.232 107.281 117.312 107.648 117.312ZM112.319 120.25C112.163 120.25 112.023 120.237 111.901 120.211C111.778 120.188 111.694 120.164 111.647 120.141L111.881 119.328C112.105 119.385 112.303 119.406 112.475 119.391C112.647 119.375 112.799 119.298 112.932 119.16C113.068 119.025 113.191 118.805 113.303 118.5L113.475 118.031L111.256 112H112.256L113.913 116.781H113.975L115.631 112H116.631L114.084 118.875C113.97 119.185 113.828 119.441 113.659 119.645C113.489 119.85 113.293 120.003 113.069 120.102C112.847 120.201 112.597 120.25 112.319 120.25ZM119.067 110L118.989 115.75H118.083L118.004 110H119.067ZM118.536 118.063C118.343 118.063 118.178 117.993 118.04 117.855C117.902 117.717 117.833 117.552 117.833 117.359C117.833 117.167 117.902 117.001 118.04 116.863C118.178 116.725 118.343 116.656 118.536 116.656C118.728 116.656 118.894 116.725 119.032 116.863C119.17 117.001 119.239 117.167 119.239 117.359C119.239 117.487 119.206 117.604 119.141 117.711C119.079 117.818 118.994 117.904 118.887 117.969C118.783 118.031 118.666 118.063 118.536 118.063ZM32.1782 125V125.781H29.0688V125H32.1782ZM29.9751 123.562H30.897V129.281C30.897 129.542 30.9347 129.737 31.0103 129.867C31.0884 129.995 31.1873 130.081 31.3071 130.125C31.4295 130.167 31.5584 130.187 31.6938 130.187C31.7954 130.187 31.8787 130.182 31.9438 130.172C32.009 130.159 32.061 130.148 32.1001 130.141L32.2876 130.969C32.2251 130.992 32.1379 131.016 32.0259 131.039C31.9139 131.065 31.772 131.078 31.6001 131.078C31.3397 131.078 31.0845 131.022 30.8345 130.91C30.5871 130.798 30.3813 130.628 30.2173 130.398C30.0558 130.169 29.9751 129.88 29.9751 129.531V123.562ZM35.938 131.125C35.3963 131.125 34.9211 130.996 34.5122 130.738C34.106 130.48 33.7882 130.12 33.5591 129.656C33.3325 129.193 33.2192 128.651 33.2192 128.031C33.2192 127.406 33.3325 126.861 33.5591 126.395C33.7882 125.928 34.106 125.566 34.5122 125.309C34.9211 125.051 35.3963 124.922 35.938 124.922C36.4797 124.922 36.9536 125.051 37.3599 125.309C37.7687 125.566 38.0864 125.928 38.313 126.395C38.5422 126.861 38.6567 127.406 38.6567 128.031C38.6567 128.651 38.5422 129.193 38.313 129.656C38.0864 130.12 37.7687 130.48 37.3599 130.738C36.9536 130.996 36.4797 131.125 35.938 131.125ZM35.938 130.297C36.3494 130.297 36.688 130.191 36.9536 129.98C37.2192 129.77 37.4159 129.492 37.5435 129.148C37.6711 128.805 37.7349 128.432 37.7349 128.031C37.7349 127.63 37.6711 127.257 37.5435 126.91C37.4159 126.564 37.2192 126.284 36.9536 126.07C36.688 125.857 36.3494 125.75 35.938 125.75C35.5265 125.75 35.188 125.857 34.9224 126.07C34.6567 126.284 34.4601 126.564 34.3325 126.91C34.2049 127.257 34.1411 127.63 34.1411 128.031C34.1411 128.432 34.2049 128.805 34.3325 129.148C34.4601 129.492 34.6567 129.77 34.9224 129.98C35.188 130.191 35.5265 130.297 35.938 130.297ZM43.1577 131V125H44.0796V131H43.1577ZM43.6265 124C43.4468 124 43.2918 123.939 43.1616 123.816C43.034 123.694 42.9702 123.547 42.9702 123.375C42.9702 123.203 43.034 123.056 43.1616 122.934C43.2918 122.811 43.4468 122.75 43.6265 122.75C43.8062 122.75 43.9598 122.811 44.0874 122.934C44.2176 123.056 44.2827 123.203 44.2827 123.375C44.2827 123.547 44.2176 123.694 44.0874 123.816C43.9598 123.939 43.8062 124 43.6265 124ZM45.7681 131V125H46.6587V125.937H46.7368C46.8618 125.617 47.0636 125.368 47.3423 125.191C47.6209 125.012 47.9556 124.922 48.3462 124.922C48.742 124.922 49.0715 125.012 49.3345 125.191C49.6001 125.368 49.8071 125.617 49.9556 125.937H50.0181C50.1717 125.628 50.4022 125.382 50.7095 125.199C51.0168 125.014 51.3853 124.922 51.8149 124.922C52.3514 124.922 52.7902 125.09 53.1313 125.426C53.4725 125.759 53.6431 126.279 53.6431 126.984V131H52.7212V126.984C52.7212 126.542 52.6001 126.225 52.3579 126.035C52.1157 125.845 51.8306 125.75 51.5024 125.75C51.0806 125.75 50.7537 125.878 50.522 126.133C50.2902 126.385 50.1743 126.706 50.1743 127.094V131H49.2368V126.891C49.2368 126.549 49.1261 126.275 48.9048 126.066C48.6834 125.855 48.3983 125.75 48.0493 125.75C47.8097 125.75 47.5858 125.814 47.3774 125.941C47.1717 126.069 47.005 126.246 46.8774 126.473C46.7524 126.697 46.6899 126.956 46.6899 127.25V131H45.7681ZM55.3286 133.25V125H56.2192V125.953H56.3286C56.3963 125.849 56.4901 125.716 56.6099 125.555C56.7323 125.391 56.9067 125.245 57.1333 125.117C57.3625 124.987 57.6724 124.922 58.063 124.922C58.5682 124.922 59.0135 125.048 59.3989 125.301C59.7843 125.553 60.0851 125.911 60.3013 126.375C60.5174 126.839 60.6255 127.385 60.6255 128.016C60.6255 128.651 60.5174 129.202 60.3013 129.668C60.0851 130.132 59.7856 130.491 59.4028 130.746C59.02 130.999 58.5786 131.125 58.0786 131.125C57.6932 131.125 57.3846 131.061 57.1528 130.934C56.9211 130.803 56.7427 130.656 56.6177 130.492C56.4927 130.326 56.3963 130.187 56.3286 130.078H56.2505V133.25H55.3286ZM56.2349 128C56.2349 128.453 56.3013 128.853 56.4341 129.199C56.5669 129.543 56.7609 129.812 57.0161 130.008C57.2713 130.201 57.5838 130.297 57.9536 130.297C58.339 130.297 58.6606 130.195 58.9185 129.992C59.1789 129.786 59.3742 129.51 59.5044 129.164C59.6372 128.815 59.7036 128.427 59.7036 128C59.7036 127.578 59.6385 127.198 59.5083 126.859C59.3807 126.518 59.1867 126.249 58.9263 126.051C58.6685 125.85 58.3442 125.75 57.9536 125.75C57.5786 125.75 57.2635 125.845 57.0083 126.035C56.7531 126.223 56.5604 126.486 56.4302 126.824C56.3 127.16 56.2349 127.552 56.2349 128ZM62.0317 131V125H62.9224V125.906H62.9849C63.0942 125.609 63.2922 125.368 63.5786 125.184C63.8651 124.999 64.188 124.906 64.5474 124.906C64.6151 124.906 64.6997 124.908 64.8013 124.91C64.9028 124.913 64.9797 124.917 65.0317 124.922V125.859C65.0005 125.852 64.9289 125.84 64.8169 125.824C64.7075 125.806 64.5916 125.797 64.4692 125.797C64.1776 125.797 63.9172 125.858 63.688 125.98C63.4614 126.1 63.2817 126.267 63.1489 126.48C63.0187 126.691 62.9536 126.932 62.9536 127.203V131H62.0317ZM68.3794 131.125C67.8377 131.125 67.3625 130.996 66.9536 130.738C66.5474 130.48 66.2297 130.12 66.0005 129.656C65.7739 129.193 65.6606 128.651 65.6606 128.031C65.6606 127.406 65.7739 126.861 66.0005 126.395C66.2297 125.928 66.5474 125.566 66.9536 125.309C67.3625 125.051 67.8377 124.922 68.3794 124.922C68.9211 124.922 69.395 125.051 69.8013 125.309C70.2101 125.566 70.5278 125.928 70.7544 126.395C70.9836 126.861 71.0981 127.406 71.0981 128.031C71.0981 128.651 70.9836 129.193 70.7544 129.656C70.5278 130.12 70.2101 130.48 69.8013 130.738C69.395 130.996 68.9211 131.125 68.3794 131.125ZM68.3794 130.297C68.7909 130.297 69.1294 130.191 69.395 129.98C69.6606 129.77 69.8573 129.492 69.9849 129.148C70.1125 128.805 70.1763 128.432 70.1763 128.031C70.1763 127.63 70.1125 127.257 69.9849 126.91C69.8573 126.564 69.6606 126.284 69.395 126.07C69.1294 125.857 68.7909 125.75 68.3794 125.75C67.9679 125.75 67.6294 125.857 67.3638 126.07C67.0981 126.284 66.9015 126.564 66.7739 126.91C66.6463 127.257 66.5825 127.63 66.5825 128.031C66.5825 128.432 66.6463 128.805 66.7739 129.148C66.9015 129.492 67.0981 129.77 67.3638 129.98C67.6294 130.191 67.9679 130.297 68.3794 130.297ZM77.1968 125L74.978 131H74.0405L71.8218 125H72.8218L74.478 129.781H74.5405L76.1968 125H77.1968ZM80.7144 131.125C80.1362 131.125 79.6375 130.997 79.2183 130.742C78.8016 130.484 78.48 130.125 78.2534 129.664C78.0295 129.201 77.9175 128.661 77.9175 128.047C77.9175 127.432 78.0295 126.891 78.2534 126.422C78.48 125.951 78.7951 125.583 79.1987 125.32C79.605 125.055 80.0789 124.922 80.6206 124.922C80.9331 124.922 81.2417 124.974 81.5464 125.078C81.8511 125.182 82.1284 125.352 82.3784 125.586C82.6284 125.818 82.8276 126.125 82.9761 126.508C83.1245 126.891 83.1987 127.362 83.1987 127.922V128.312H78.5737V127.516H82.2612C82.2612 127.177 82.1935 126.875 82.0581 126.609C81.9253 126.344 81.7352 126.134 81.4878 125.98C81.243 125.827 80.9539 125.75 80.6206 125.75C80.2534 125.75 79.9357 125.841 79.6675 126.023C79.4019 126.203 79.1974 126.437 79.0542 126.727C78.911 127.016 78.8394 127.326 78.8394 127.656V128.188C78.8394 128.641 78.9175 129.025 79.0737 129.34C79.2326 129.652 79.4526 129.891 79.7339 130.055C80.0151 130.216 80.342 130.297 80.7144 130.297C80.9565 130.297 81.1753 130.263 81.3706 130.195C81.5685 130.125 81.7391 130.021 81.8823 129.883C82.0256 129.742 82.1362 129.568 82.2144 129.359L83.105 129.609C83.0112 129.911 82.8537 130.177 82.6323 130.406C82.411 130.633 82.1375 130.81 81.812 130.937C81.4865 131.063 81.1206 131.125 80.7144 131.125ZM88.2886 133.25C88.1323 133.25 87.993 133.237 87.8706 133.211C87.7482 133.188 87.6636 133.164 87.6167 133.141L87.8511 132.328C88.075 132.385 88.2729 132.406 88.4448 132.391C88.6167 132.375 88.769 132.298 88.9019 132.16C89.0373 132.025 89.161 131.805 89.2729 131.5L89.4448 131.031L87.2261 125H88.2261L89.8823 129.781H89.9448L91.6011 125H92.6011L90.0542 131.875C89.9396 132.185 89.7977 132.441 89.6284 132.645C89.4591 132.85 89.2625 133.003 89.0386 133.102C88.8172 133.201 88.5672 133.25 88.2886 133.25ZM96.0405 131.125C95.4989 131.125 95.0236 130.996 94.6147 130.738C94.2085 130.48 93.8908 130.12 93.6616 129.656C93.4351 129.193 93.3218 128.651 93.3218 128.031C93.3218 127.406 93.4351 126.861 93.6616 126.395C93.8908 125.928 94.2085 125.566 94.6147 125.309C95.0236 125.051 95.4989 124.922 96.0405 124.922C96.5822 124.922 97.0562 125.051 97.4624 125.309C97.8713 125.566 98.189 125.928 98.4155 126.395C98.6447 126.861 98.7593 127.406 98.7593 128.031C98.7593 128.651 98.6447 129.193 98.4155 129.656C98.189 130.12 97.8713 130.48 97.4624 130.738C97.0562 130.996 96.5822 131.125 96.0405 131.125ZM96.0405 130.297C96.452 130.297 96.7905 130.191 97.0562 129.98C97.3218 129.77 97.5184 129.492 97.646 129.148C97.7736 128.805 97.8374 128.432 97.8374 128.031C97.8374 127.63 97.7736 127.257 97.646 126.91C97.5184 126.564 97.3218 126.284 97.0562 126.07C96.7905 125.857 96.452 125.75 96.0405 125.75C95.6291 125.75 95.2905 125.857 95.0249 126.07C94.7593 126.284 94.5627 126.564 94.4351 126.91C94.3075 127.257 94.2437 127.63 94.2437 128.031C94.2437 128.432 94.3075 128.805 94.4351 129.148C94.5627 129.492 94.7593 129.77 95.0249 129.98C95.2905 130.191 95.6291 130.297 96.0405 130.297ZM103.948 128.547V125H104.87V131H103.948V129.984H103.885C103.745 130.289 103.526 130.548 103.229 130.762C102.932 130.973 102.557 131.078 102.104 131.078C101.729 131.078 101.396 130.996 101.104 130.832C100.812 130.665 100.583 130.415 100.417 130.082C100.25 129.746 100.167 129.323 100.167 128.812V125H101.088V128.75C101.088 129.187 101.211 129.536 101.456 129.797C101.703 130.057 102.018 130.187 102.401 130.187C102.63 130.187 102.863 130.129 103.1 130.012C103.34 129.895 103.54 129.715 103.702 129.473C103.866 129.23 103.948 128.922 103.948 128.547ZM106.558 131V125H107.449V125.906H107.511C107.621 125.609 107.819 125.368 108.105 125.184C108.391 124.999 108.714 124.906 109.074 124.906C109.141 124.906 109.226 124.908 109.328 124.91C109.429 124.913 109.506 124.917 109.558 124.922V125.859C109.527 125.852 109.455 125.84 109.343 125.824C109.234 125.806 109.118 125.797 108.996 125.797C108.704 125.797 108.444 125.858 108.214 125.98C107.988 126.1 107.808 126.267 107.675 126.48C107.545 126.691 107.48 126.932 107.48 127.203V131H106.558ZM116.26 131.125C115.682 131.125 115.183 130.997 114.764 130.742C114.347 130.484 114.026 130.125 113.799 129.664C113.575 129.201 113.463 128.661 113.463 128.047C113.463 127.432 113.575 126.891 113.799 126.422C114.026 125.951 114.341 125.583 114.745 125.32C115.151 125.055 115.625 124.922 116.167 124.922C116.479 124.922 116.788 124.974 117.092 125.078C117.397 125.182 117.674 125.352 117.924 125.586C118.174 125.818 118.374 126.125 118.522 126.508C118.67 126.891 118.745 127.362 118.745 127.922V128.312H114.12V127.516H117.807C117.807 127.177 117.739 126.875 117.604 126.609C117.471 126.344 117.281 126.134 117.034 125.98C116.789 125.827 116.5 125.75 116.167 125.75C115.799 125.75 115.482 125.841 115.213 126.023C114.948 126.203 114.743 126.437 114.6 126.727C114.457 127.016 114.385 127.326 114.385 127.656V128.188C114.385 128.641 114.463 129.025 114.62 129.34C114.778 129.652 114.999 129.891 115.28 130.055C115.561 130.216 115.888 130.297 116.26 130.297C116.502 130.297 116.721 130.263 116.917 130.195C117.114 130.125 117.285 130.021 117.428 129.883C117.571 129.742 117.682 129.568 117.76 129.359L118.651 129.609C118.557 129.911 118.4 130.177 118.178 130.406C117.957 130.633 117.683 130.81 117.358 130.937C117.032 131.063 116.667 131.125 116.26 131.125ZM120.673 125L122.111 127.453L123.548 125H124.611L122.673 128L124.611 131H123.548L122.111 128.672L120.673 131H119.611L121.517 128L119.611 125H120.673ZM125.926 133.25V125H126.817V125.953H126.926C126.994 125.849 127.088 125.716 127.208 125.555C127.33 125.391 127.504 125.245 127.731 125.117C127.96 124.987 128.27 124.922 128.661 124.922C129.166 124.922 129.611 125.048 129.997 125.301C130.382 125.553 130.683 125.911 130.899 126.375C131.115 126.839 131.223 127.385 131.223 128.016C131.223 128.651 131.115 129.202 130.899 129.668C130.683 130.132 130.383 130.491 130 130.746C129.618 130.999 129.176 131.125 128.676 131.125C128.291 131.125 127.982 131.061 127.75 130.934C127.519 130.803 127.34 130.656 127.215 130.492C127.09 130.326 126.994 130.187 126.926 130.078H126.848V133.25H125.926ZM126.833 128C126.833 128.453 126.899 128.853 127.032 129.199C127.165 129.543 127.359 129.812 127.614 130.008C127.869 130.201 128.181 130.297 128.551 130.297C128.937 130.297 129.258 130.195 129.516 129.992C129.777 129.786 129.972 129.51 130.102 129.164C130.235 128.815 130.301 128.427 130.301 128C130.301 127.578 130.236 127.198 130.106 126.859C129.978 126.518 129.784 126.249 129.524 126.051C129.266 125.85 128.942 125.75 128.551 125.75C128.176 125.75 127.861 125.845 127.606 126.035C127.351 126.223 127.158 126.486 127.028 126.824C126.898 127.16 126.833 127.552 126.833 128ZM135.145 131.125C134.567 131.125 134.068 130.997 133.649 130.742C133.232 130.484 132.911 130.125 132.684 129.664C132.46 129.201 132.348 128.661 132.348 128.047C132.348 127.432 132.46 126.891 132.684 126.422C132.911 125.951 133.226 125.583 133.629 125.32C134.036 125.055 134.51 124.922 135.051 124.922C135.364 124.922 135.672 124.974 135.977 125.078C136.282 125.182 136.559 125.352 136.809 125.586C137.059 125.818 137.258 126.125 137.407 126.508C137.555 126.891 137.629 127.362 137.629 127.922V128.312H133.004V127.516H136.692C136.692 127.177 136.624 126.875 136.489 126.609C136.356 126.344 136.166 126.134 135.918 125.98C135.674 125.827 135.385 125.75 135.051 125.75C134.684 125.75 134.366 125.841 134.098 126.023C133.833 126.203 133.628 126.437 133.485 126.727C133.342 127.016 133.27 127.326 133.27 127.656V128.188C133.27 128.641 133.348 129.025 133.504 129.34C133.663 129.652 133.883 129.891 134.165 130.055C134.446 130.216 134.773 130.297 135.145 130.297C135.387 130.297 135.606 130.263 135.801 130.195C135.999 130.125 136.17 130.021 136.313 129.883C136.456 129.742 136.567 129.568 136.645 129.359L137.536 129.609C137.442 129.911 137.284 130.177 137.063 130.406C136.842 130.633 136.568 130.81 136.243 130.937C135.917 131.063 135.551 131.125 135.145 131.125ZM139.032 131V125H139.922V125.906H139.985C140.094 125.609 140.292 125.368 140.579 125.184C140.865 124.999 141.188 124.906 141.547 124.906C141.615 124.906 141.7 124.908 141.801 124.91C141.903 124.913 141.98 124.917 142.032 124.922V125.859C142 125.852 141.929 125.84 141.817 125.824C141.708 125.806 141.592 125.797 141.469 125.797C141.178 125.797 140.917 125.858 140.688 125.98C140.461 126.1 140.282 126.267 140.149 126.48C140.019 126.691 139.954 126.932 139.954 127.203V131H139.032ZM143.125 131V125H144.046V131H143.125ZM143.593 124C143.414 124 143.259 123.939 143.128 123.816C143.001 123.694 142.937 123.547 142.937 123.375C142.937 123.203 143.001 123.056 143.128 122.934C143.259 122.811 143.414 122.75 143.593 122.75C143.773 122.75 143.927 122.811 144.054 122.934C144.184 123.056 144.25 123.203 144.25 123.375C144.25 123.547 144.184 123.694 144.054 123.816C143.927 123.939 143.773 124 143.593 124ZM148.25 131.125C147.672 131.125 147.174 130.997 146.754 130.742C146.338 130.484 146.016 130.125 145.79 129.664C145.566 129.201 145.454 128.661 145.454 128.047C145.454 127.432 145.566 126.891 145.79 126.422C146.016 125.951 146.331 125.583 146.735 125.32C147.141 125.055 147.615 124.922 148.157 124.922C148.469 124.922 148.778 124.974 149.083 125.078C149.387 125.182 149.665 125.352 149.915 125.586C150.165 125.818 150.364 126.125 150.512 126.508C150.661 126.891 150.735 127.362 150.735 127.922V128.312H146.11V127.516H149.797C149.797 127.177 149.73 126.875 149.594 126.609C149.461 126.344 149.271 126.134 149.024 125.98C148.779 125.827 148.49 125.75 148.157 125.75C147.79 125.75 147.472 125.841 147.204 126.023C146.938 126.203 146.734 126.437 146.59 126.727C146.447 127.016 146.375 127.326 146.375 127.656V128.188C146.375 128.641 146.454 129.025 146.61 129.34C146.769 129.652 146.989 129.891 147.27 130.055C147.551 130.216 147.878 130.297 148.25 130.297C148.493 130.297 148.711 130.263 148.907 130.195C149.105 130.125 149.275 130.021 149.418 129.883C149.562 129.742 149.672 129.568 149.75 129.359L150.641 129.609C150.547 129.911 150.39 130.177 150.168 130.406C149.947 130.633 149.674 130.81 149.348 130.937C149.023 131.063 148.657 131.125 148.25 131.125ZM153.059 127.391V131H152.137V125H153.028V125.937H153.106C153.247 125.633 153.46 125.388 153.747 125.203C154.033 125.016 154.403 124.922 154.856 124.922C155.262 124.922 155.618 125.005 155.922 125.172C156.227 125.336 156.464 125.586 156.633 125.922C156.803 126.255 156.887 126.677 156.887 127.188V131H155.965V127.25C155.965 126.779 155.843 126.411 155.598 126.148C155.353 125.883 155.017 125.75 154.59 125.75C154.296 125.75 154.033 125.814 153.801 125.941C153.572 126.069 153.391 126.255 153.258 126.5C153.125 126.745 153.059 127.042 153.059 127.391ZM161.009 131.125C160.447 131.125 159.962 130.992 159.556 130.727C159.15 130.461 158.837 130.095 158.619 129.629C158.4 129.163 158.291 128.63 158.291 128.031C158.291 127.422 158.403 126.884 158.626 126.418C158.853 125.949 159.168 125.583 159.572 125.32C159.978 125.055 160.452 124.922 160.994 124.922C161.416 124.922 161.796 125 162.134 125.156C162.473 125.312 162.75 125.531 162.966 125.812C163.182 126.094 163.317 126.422 163.369 126.797H162.447C162.376 126.523 162.22 126.281 161.978 126.07C161.738 125.857 161.416 125.75 161.009 125.75C160.65 125.75 160.335 125.844 160.064 126.031C159.796 126.216 159.586 126.478 159.435 126.816C159.287 127.152 159.212 127.547 159.212 128C159.212 128.464 159.285 128.867 159.431 129.211C159.58 129.555 159.788 129.822 160.056 130.012C160.327 130.202 160.645 130.297 161.009 130.297C161.249 130.297 161.466 130.255 161.662 130.172C161.857 130.089 162.022 129.969 162.158 129.812C162.293 129.656 162.389 129.469 162.447 129.25H163.369C163.317 129.604 163.188 129.923 162.982 130.207C162.779 130.488 162.509 130.712 162.173 130.879C161.84 131.043 161.452 131.125 161.009 131.125ZM167.232 131.125C166.654 131.125 166.155 130.997 165.736 130.742C165.319 130.484 164.998 130.125 164.771 129.664C164.547 129.201 164.435 128.661 164.435 128.047C164.435 127.432 164.547 126.891 164.771 126.422C164.998 125.951 165.313 125.583 165.716 125.32C166.123 125.055 166.597 124.922 167.138 124.922C167.451 124.922 167.759 124.974 168.064 125.078C168.369 125.182 168.646 125.352 168.896 125.586C169.146 125.818 169.345 126.125 169.494 126.508C169.642 126.891 169.716 127.362 169.716 127.922V128.312H165.091V127.516H168.779C168.779 127.177 168.711 126.875 168.576 126.609C168.443 126.344 168.253 126.134 168.005 125.98C167.761 125.827 167.472 125.75 167.138 125.75C166.771 125.75 166.453 125.841 166.185 126.023C165.919 126.203 165.715 126.437 165.572 126.727C165.429 127.016 165.357 127.326 165.357 127.656V128.188C165.357 128.641 165.435 129.025 165.591 129.34C165.75 129.652 165.97 129.891 166.251 130.055C166.533 130.216 166.86 130.297 167.232 130.297C167.474 130.297 167.693 130.263 167.888 130.195C168.086 130.125 168.257 130.021 168.4 129.883C168.543 129.742 168.654 129.568 168.732 129.359L169.623 129.609C169.529 129.911 169.371 130.177 169.15 130.406C168.929 130.633 168.655 130.81 168.33 130.937C168.004 131.063 167.638 131.125 167.232 131.125Z" fill="#2C2720"/>
</svg>
