<svg width="201" height="181" viewBox="0 0 201 181" fill="none" xmlns="http://www.w3.org/2000/svg">
<path d="M192.5 0.5H8.5C4.08172 0.5 0.5 4.08172 0.5 8.5V172.5C0.5 176.918 4.08172 180.5 8.5 180.5H192.5C196.918 180.5 200.5 176.918 200.5 172.5V8.5C200.5 4.08172 196.918 0.5 192.5 0.5Z" fill="#2C2720" stroke="#3A322A"/>
<path d="M74.1477 45.7727C74.0795 45.197 73.803 44.75 73.3182 44.4318C72.8333 44.1136 72.2386 43.9545 71.5341 43.9545C71.0189 43.9545 70.5682 44.0379 70.1818 44.2045C69.7992 44.3712 69.5 44.6004 69.2841 44.892C69.072 45.1837 68.9659 45.5152 68.9659 45.8864C68.9659 46.197 69.0398 46.464 69.1875 46.6875C69.339 46.9072 69.5322 47.0909 69.767 47.2386C70.0019 47.3826 70.2481 47.5019 70.5057 47.5966C70.7633 47.6875 71 47.7614 71.2159 47.8182L72.3977 48.1364C72.7008 48.2159 73.0379 48.3258 73.4091 48.4659C73.7841 48.6061 74.142 48.7973 74.483 49.0398C74.8277 49.2784 75.1117 49.5852 75.3352 49.9602C75.5587 50.3352 75.6705 50.7955 75.6705 51.3409C75.6705 51.9697 75.5057 52.5379 75.1761 53.0455C74.8504 53.553 74.3731 53.9564 73.7443 54.2557C73.1193 54.5549 72.3598 54.7045 71.4659 54.7045C70.6326 54.7045 69.911 54.5701 69.3011 54.3011C68.6951 54.0322 68.2178 53.6572 67.8693 53.1761C67.5246 52.6951 67.3295 52.1364 67.2841 51.5H68.7386C68.7765 51.9394 68.9242 52.303 69.1818 52.5909C69.4432 52.875 69.7727 53.0871 70.1705 53.2273C70.572 53.3636 71.0038 53.4318 71.4659 53.4318C72.0038 53.4318 72.4867 53.3447 72.9148 53.1705C73.3428 52.9924 73.6818 52.7462 73.9318 52.4318C74.1818 52.1136 74.3068 51.7424 74.3068 51.3182C74.3068 50.9318 74.1989 50.6174 73.983 50.375C73.767 50.1326 73.483 49.9356 73.1307 49.7841C72.7784 49.6326 72.3977 49.5 71.9886 49.3864L70.5568 48.9773C69.6477 48.7159 68.928 48.3428 68.3977 47.858C67.8674 47.3731 67.6023 46.7386 67.6023 45.9545C67.6023 45.303 67.7784 44.7348 68.1307 44.25C68.4867 43.7614 68.964 43.3826 69.5625 43.1136C70.1648 42.8409 70.8371 42.7045 71.5795 42.7045C72.3295 42.7045 72.9962 42.839 73.5795 43.108C74.1629 43.3731 74.625 43.7367 74.9659 44.1989C75.3106 44.661 75.4924 45.1856 75.5114 45.7727H74.1477ZM80.1009 54.5L76.919 42.8636H78.3509L80.7827 52.3409H80.8963L83.3736 42.8636H84.9645L87.4418 52.3409H87.5554L89.9872 42.8636H91.419L88.2372 54.5H86.7827L84.2145 45.2273H84.1236L81.5554 54.5H80.1009ZM92.7457 54.5H91.2685L95.5412 42.8636H96.9957L101.268 54.5H99.7912L96.3139 44.7045H96.223L92.7457 54.5ZM93.2912 49.9545H99.2457V51.2045H93.2912V49.9545ZM110.489 46.5C110.364 46.1174 110.199 45.7746 109.994 45.4716C109.794 45.1648 109.553 44.9034 109.273 44.6875C108.996 44.4716 108.682 44.3068 108.33 44.1932C107.977 44.0795 107.591 44.0227 107.17 44.0227C106.481 44.0227 105.854 44.2008 105.29 44.5568C104.725 44.9129 104.277 45.4375 103.943 46.1307C103.61 46.8239 103.443 47.6742 103.443 48.6818C103.443 49.6894 103.612 50.5398 103.949 51.233C104.286 51.9261 104.742 52.4508 105.318 52.8068C105.894 53.1629 106.542 53.3409 107.261 53.3409C107.928 53.3409 108.515 53.1989 109.023 52.9148C109.534 52.6269 109.932 52.2216 110.216 51.6989C110.504 51.1723 110.648 50.553 110.648 49.8409L111.08 49.9318H107.58V48.6818H112.011V49.9318C112.011 50.8902 111.807 51.7235 111.398 52.4318C110.992 53.1402 110.432 53.6894 109.716 54.0795C109.004 54.4659 108.186 54.6591 107.261 54.6591C106.231 54.6591 105.326 54.4167 104.545 53.9318C103.769 53.447 103.163 52.7576 102.727 51.8636C102.295 50.9697 102.08 49.9091 102.08 48.6818C102.08 47.7614 102.203 46.9337 102.449 46.1989C102.699 45.4602 103.051 44.8314 103.506 44.3125C103.96 43.7936 104.498 43.3958 105.119 43.1193C105.741 42.8428 106.424 42.7045 107.17 42.7045C107.784 42.7045 108.356 42.7973 108.886 42.983C109.42 43.1648 109.896 43.4242 110.312 43.7614C110.733 44.0947 111.083 44.4943 111.364 44.9602C111.644 45.4223 111.837 45.9356 111.943 46.5H110.489ZM123.652 42.8636V54.5H122.288L115.947 45.3636H115.834V54.5H114.425V42.8636H115.788L122.152 52.0227H122.266V42.8636H123.652ZM126.472 54.5V42.8636H133.494V44.1136H127.881V48.0455H133.131V49.2955H127.881V53.25H133.585V54.5H126.472Z" fill="#C4A882"/>
<path d="M66.6581 66.0703C66.6134 65.9148 66.5505 65.7773 66.4695 65.658C66.3886 65.5366 66.2895 65.4343 66.1723 65.3512C66.0573 65.266 65.9252 65.201 65.776 65.1562C65.629 65.1115 65.466 65.0891 65.287 65.0891C64.9525 65.0891 64.6585 65.1722 64.4049 65.3384C64.1535 65.5046 63.9575 65.7464 63.8169 66.0639C63.6762 66.3793 63.6059 66.7649 63.6059 67.2209C63.6059 67.6768 63.6752 68.0646 63.8137 68.3842C63.9521 68.7038 64.1482 68.9478 64.4017 69.1161C64.6553 69.2823 64.9546 69.3654 65.2998 69.3654C65.613 69.3654 65.8804 69.31 66.102 69.1992C66.3257 69.0863 66.4962 68.9276 66.6134 68.723C66.7327 68.5185 66.7923 68.2766 66.7923 67.9975L67.0736 68.0391H65.3861V66.9972H68.1251V67.8217C68.1251 68.397 68.0036 68.8913 67.7607 69.3047C67.5178 69.7159 67.1833 70.0334 66.7572 70.2571C66.3311 70.4787 65.8431 70.5895 65.2934 70.5895C64.6798 70.5895 64.1407 70.4542 63.6762 70.1836C63.2117 69.9109 62.8495 69.5241 62.5896 69.0234C62.3318 68.5206 62.2029 67.924 62.2029 67.2337C62.2029 66.7031 62.2796 66.2301 62.433 65.8146C62.5885 65.397 62.8058 65.0433 63.085 64.7536C63.3641 64.4638 63.689 64.2433 64.0597 64.092C64.4305 63.9407 64.8321 63.8651 65.2646 63.8651C65.6354 63.8651 65.9806 63.9194 66.3002 64.0281C66.6198 64.1346 66.9031 64.2859 67.1503 64.4819C67.3996 64.6779 67.6031 64.9112 67.7607 65.1818C67.9184 65.4503 68.0196 65.7464 68.0644 66.0703H66.6581ZM69.139 70.5V65.5909H70.459V66.4474H70.5101C70.5996 66.1428 70.7498 65.9126 70.9608 65.7571C71.1717 65.5994 71.4146 65.5206 71.6895 65.5206C71.7576 65.5206 71.8311 65.5249 71.91 65.5334C71.9888 65.5419 72.0581 65.5536 72.1177 65.5685V66.7766C72.0538 66.7575 71.9654 66.7404 71.8525 66.7255C71.7395 66.7106 71.6362 66.7031 71.5424 66.7031C71.3422 66.7031 71.1632 66.7468 71.0055 66.8342C70.85 66.9194 70.7264 67.0387 70.6348 67.1921C70.5453 67.3455 70.5005 67.5224 70.5005 67.7227V70.5H69.139ZM74.8112 70.5959C74.3147 70.5959 73.8854 70.4904 73.5232 70.2795C73.1631 70.0664 72.885 69.7702 72.689 69.391C72.493 69.0096 72.395 68.5675 72.395 68.0646C72.395 67.5575 72.493 67.1143 72.689 66.7351C72.885 66.3537 73.1631 66.0575 73.5232 65.8466C73.8854 65.6335 74.3147 65.527 74.8112 65.527C75.3076 65.527 75.7359 65.6335 76.096 65.8466C76.4582 66.0575 76.7373 66.3537 76.9333 66.7351C77.1294 67.1143 77.2274 67.5575 77.2274 68.0646C77.2274 68.5675 77.1294 69.0096 76.9333 69.391C76.7373 69.7702 76.4582 70.0664 76.096 70.2795C75.7359 70.4904 75.3076 70.5959 74.8112 70.5959ZM74.8176 69.5412C75.0434 69.5412 75.232 69.4773 75.3833 69.3494C75.5345 69.2195 75.6485 69.0426 75.7252 68.8189C75.8041 68.5952 75.8435 68.3406 75.8435 68.055C75.8435 67.7695 75.8041 67.5149 75.7252 67.2912C75.6485 67.0675 75.5345 66.8906 75.3833 66.7607C75.232 66.6307 75.0434 66.5657 74.8176 66.5657C74.5896 66.5657 74.3978 66.6307 74.2423 66.7607C74.0889 66.8906 73.9727 67.0675 73.8939 67.2912C73.8172 67.5149 73.7789 67.7695 73.7789 68.055C73.7789 68.3406 73.8172 68.5952 73.8939 68.8189C73.9727 69.0426 74.0889 69.2195 74.2423 69.3494C74.3978 69.4773 74.5896 69.5412 74.8176 69.5412ZM78.958 70.5L77.6221 65.5909H78.9996L79.7602 68.8892H79.805L80.5976 65.5909H81.9495L82.7549 68.87H82.7964L83.5443 65.5909H84.9186L83.5858 70.5H82.1444L81.3007 67.4126H81.24L80.3962 70.5H78.958ZM85.6449 70.5V65.5909H87.0064V70.5H85.6449ZM86.3288 64.9581C86.1264 64.9581 85.9528 64.891 85.8079 64.7567C85.6651 64.6204 85.5938 64.4574 85.5938 64.2678C85.5938 64.0803 85.6651 63.9194 85.8079 63.7852C85.9528 63.6488 86.1264 63.5806 86.3288 63.5806C86.5313 63.5806 86.7038 63.6488 86.8466 63.7852C86.9915 63.9194 87.0639 64.0803 87.0639 64.2678C87.0639 64.4574 86.9915 64.6204 86.8466 64.7567C86.7038 64.891 86.5313 64.9581 86.3288 64.9581ZM89.4585 67.6619V70.5H88.097V65.5909H89.3946V66.457H89.4521C89.5608 66.1715 89.743 65.9457 89.9987 65.7795C90.2544 65.6112 90.5644 65.527 90.9287 65.527C91.2696 65.527 91.5669 65.6016 91.8204 65.7507C92.074 65.8999 92.271 66.1129 92.4117 66.3899C92.5523 66.6648 92.6226 66.9929 92.6226 67.3743V70.5H91.2611V67.6172C91.2632 67.3168 91.1865 67.0824 91.031 66.9141C90.8754 66.7436 90.6613 66.6584 90.3886 66.6584C90.2053 66.6584 90.0434 66.6978 89.9028 66.7766C89.7643 66.8555 89.6556 66.9705 89.5768 67.1218C89.5001 67.271 89.4607 67.451 89.4585 67.6619ZM95.9073 72.4432C95.4663 72.4432 95.0881 72.3825 94.7727 72.261C94.4595 72.1417 94.2102 71.9787 94.0249 71.772C93.8395 71.5653 93.7191 71.3331 93.6637 71.0753L94.9229 70.9059C94.9613 71.0039 95.022 71.0955 95.1051 71.1808C95.1882 71.266 95.2979 71.3342 95.4343 71.3853C95.5728 71.4386 95.7411 71.4652 95.9393 71.4652C96.2354 71.4652 96.4794 71.3928 96.6712 71.2479C96.8651 71.1051 96.962 70.8654 96.962 70.5288V69.6307H96.9045C96.8448 69.767 96.7553 69.896 96.636 70.0174C96.5167 70.1388 96.3633 70.2379 96.1758 70.3146C95.9883 70.3913 95.7646 70.4297 95.5046 70.4297C95.136 70.4297 94.8004 70.3445 94.4979 70.174C94.1974 70.0014 93.9577 69.7383 93.7788 69.3846C93.6019 69.0288 93.5135 68.5792 93.5135 68.0359C93.5135 67.4798 93.604 67.0153 93.7852 66.6424C93.9663 66.2695 94.207 65.9904 94.5075 65.805C94.81 65.6197 95.1413 65.527 95.5014 65.527C95.7763 65.527 96.0064 65.5739 96.1918 65.6676C96.3771 65.7592 96.5263 65.8743 96.6392 66.0128C96.7543 66.1491 96.8427 66.2834 96.9045 66.4155H96.9556V65.5909H98.3075V70.5479C98.3075 70.9656 98.2053 71.315 98.0007 71.5962C97.7962 71.8775 97.5128 72.0884 97.1506 72.229C96.7905 72.3718 96.3761 72.4432 95.9073 72.4432ZM95.9361 69.407C96.1555 69.407 96.3409 69.3526 96.4922 69.244C96.6456 69.1332 96.7628 68.9755 96.8438 68.771C96.9268 68.5643 96.9684 68.3171 96.9684 68.0295C96.9684 67.7418 96.9279 67.4925 96.8469 67.2816C96.766 67.0685 96.6488 66.9034 96.4954 66.7862C96.342 66.669 96.1555 66.6104 95.9361 66.6104C95.7124 66.6104 95.5238 66.6712 95.3704 66.7926C95.217 66.9119 95.1009 67.0781 95.022 67.2912C94.9432 67.5043 94.9038 67.7504 94.9038 68.0295C94.9038 68.3129 94.9432 68.5579 95.022 68.7646C95.103 68.9691 95.2191 69.1278 95.3704 69.2408C95.5238 69.3516 95.7124 69.407 95.9361 69.407ZM104.085 65.5909V66.6136H101.129V65.5909H104.085ZM101.8 64.4148H103.161V68.9915C103.161 69.1172 103.181 69.2152 103.219 69.2855C103.257 69.3537 103.311 69.4016 103.379 69.4293C103.449 69.457 103.53 69.4709 103.622 69.4709C103.686 69.4709 103.75 69.4656 103.813 69.4549C103.877 69.4421 103.926 69.4325 103.96 69.4261L104.175 70.4393C104.106 70.4606 104.011 70.4851 103.887 70.5128C103.763 70.5426 103.613 70.5607 103.436 70.5671C103.108 70.5799 102.821 70.5362 102.573 70.4361C102.328 70.3359 102.138 70.1804 102.001 69.9695C101.865 69.7585 101.798 69.4922 101.8 69.1705V64.4148ZM107.137 70.5959C106.641 70.5959 106.212 70.4904 105.849 70.2795C105.489 70.0664 105.211 69.7702 105.015 69.391C104.819 69.0096 104.721 68.5675 104.721 68.0646C104.721 67.5575 104.819 67.1143 105.015 66.7351C105.211 66.3537 105.489 66.0575 105.849 65.8466C106.212 65.6335 106.641 65.527 107.137 65.527C107.634 65.527 108.062 65.6335 108.422 65.8466C108.784 66.0575 109.063 66.3537 109.259 66.7351C109.456 67.1143 109.554 67.5575 109.554 68.0646C109.554 68.5675 109.456 69.0096 109.259 69.391C109.063 69.7702 108.784 70.0664 108.422 70.2795C108.062 70.4904 107.634 70.5959 107.137 70.5959ZM107.144 69.5412C107.37 69.5412 107.558 69.4773 107.709 69.3494C107.861 69.2195 107.975 69.0426 108.051 68.8189C108.13 68.5952 108.17 68.3406 108.17 68.055C108.17 67.7695 108.13 67.5149 108.051 67.2912C107.975 67.0675 107.861 66.8906 107.709 66.7607C107.558 66.6307 107.37 66.5657 107.144 66.5657C106.916 66.5657 106.724 66.6307 106.568 66.7607C106.415 66.8906 106.299 67.0675 106.22 67.2912C106.143 67.5149 106.105 67.7695 106.105 68.055C106.105 68.3406 106.143 68.5952 106.22 68.8189C106.299 69.0426 106.415 69.2195 106.568 69.3494C106.724 69.4773 106.916 69.5412 107.144 69.5412ZM112.65 72.4432C112.209 72.4432 111.831 72.3825 111.516 72.261C111.203 72.1417 110.953 71.9787 110.768 71.772C110.583 71.5653 110.462 71.3331 110.407 71.0753L111.666 70.9059C111.704 71.0039 111.765 71.0955 111.848 71.1808C111.931 71.266 112.041 71.3342 112.177 71.3853C112.316 71.4386 112.484 71.4652 112.682 71.4652C112.979 71.4652 113.223 71.3928 113.414 71.2479C113.608 71.1051 113.705 70.8654 113.705 70.5288V69.6307H113.648C113.588 69.767 113.498 69.896 113.379 70.0174C113.26 70.1388 113.106 70.2379 112.919 70.3146C112.731 70.3913 112.508 70.4297 112.248 70.4297C111.879 70.4297 111.544 70.3445 111.241 70.174C110.941 70.0014 110.701 69.7383 110.522 69.3846C110.345 69.0288 110.257 68.5792 110.257 68.0359C110.257 67.4798 110.347 67.0153 110.528 66.6424C110.709 66.2695 110.95 65.9904 111.251 65.805C111.553 65.6197 111.884 65.527 112.245 65.527C112.519 65.527 112.75 65.5739 112.935 65.6676C113.12 65.7592 113.269 65.8743 113.382 66.0128C113.497 66.1491 113.586 66.2834 113.648 66.4155H113.699V65.5909H115.051V70.5479C115.051 70.9656 114.948 71.315 114.744 71.5962C114.539 71.8775 114.256 72.0884 113.894 72.229C113.534 72.3718 113.119 72.4432 112.65 72.4432ZM112.679 69.407C112.899 69.407 113.084 69.3526 113.235 69.244C113.389 69.1332 113.506 68.9755 113.587 68.771C113.67 68.5643 113.712 68.3171 113.712 68.0295C113.712 67.7418 113.671 67.4925 113.59 67.2816C113.509 67.0685 113.392 66.9034 113.239 66.7862C113.085 66.669 112.899 66.6104 112.679 66.6104C112.456 66.6104 112.267 66.6712 112.114 66.7926C111.96 66.9119 111.844 67.0781 111.765 67.2912C111.686 67.5043 111.647 67.7504 111.647 68.0295C111.647 68.3129 111.686 68.5579 111.765 68.7646C111.846 68.9691 111.962 69.1278 112.114 69.2408C112.267 69.3516 112.456 69.407 112.679 69.407ZM118.371 70.5959C117.866 70.5959 117.432 70.4936 117.067 70.2891C116.705 70.0824 116.426 69.7905 116.23 69.4134C116.034 69.0341 115.936 68.5856 115.936 68.0678C115.936 67.5629 116.034 67.1197 116.23 66.7383C116.426 66.3569 116.702 66.0597 117.058 65.8466C117.416 65.6335 117.835 65.527 118.317 65.527C118.641 65.527 118.942 65.5792 119.222 65.6836C119.503 65.7859 119.748 65.9403 119.957 66.147C120.168 66.3537 120.332 66.6136 120.449 66.9268C120.566 67.2379 120.625 67.6023 120.625 68.0199V68.3938H116.479V67.5501H119.343C119.343 67.354 119.3 67.1804 119.215 67.0291C119.13 66.8778 119.012 66.7596 118.86 66.6744C118.711 66.587 118.538 66.5433 118.339 66.5433C118.133 66.5433 117.949 66.5913 117.79 66.6871C117.632 66.7809 117.508 66.9077 117.419 67.0675C117.329 67.2251 117.284 67.4009 117.282 67.5948V68.397C117.282 68.6399 117.326 68.8498 117.416 69.0266C117.507 69.2035 117.636 69.3398 117.802 69.4357C117.969 69.5316 118.166 69.5795 118.394 69.5795C118.545 69.5795 118.684 69.5582 118.809 69.5156C118.935 69.473 119.043 69.4091 119.132 69.3239C119.222 69.2386 119.29 69.1342 119.337 69.0107L120.596 69.0938C120.532 69.3963 120.401 69.6605 120.203 69.8864C120.007 70.1101 119.753 70.2848 119.442 70.4105C119.133 70.5341 118.776 70.5959 118.371 70.5959ZM124.124 65.5909V66.6136H121.168V65.5909H124.124ZM121.839 64.4148H123.201V68.9915C123.201 69.1172 123.22 69.2152 123.258 69.2855C123.296 69.3537 123.35 69.4016 123.418 69.4293C123.488 69.457 123.569 69.4709 123.661 69.4709C123.725 69.4709 123.789 69.4656 123.853 69.4549C123.916 69.4421 123.965 69.4325 124 69.4261L124.214 70.4393C124.146 70.4606 124.05 70.4851 123.926 70.5128C123.802 70.5426 123.652 70.5607 123.475 70.5671C123.147 70.5799 122.86 70.5362 122.612 70.4361C122.367 70.3359 122.177 70.1804 122.04 69.9695C121.904 69.7585 121.837 69.4922 121.839 69.1705V64.4148ZM126.478 67.6619V70.5H125.117V63.9545H126.44V66.457H126.497C126.608 66.1673 126.787 65.9403 127.034 65.7763C127.281 65.6101 127.591 65.527 127.964 65.527C128.305 65.527 128.602 65.6016 128.856 65.7507C129.112 65.8977 129.31 66.1097 129.45 66.3867C129.593 66.6616 129.663 66.9908 129.661 67.3743V70.5H128.3V67.6172C128.302 67.3146 128.225 67.0792 128.07 66.9109C127.916 66.7425 127.701 66.6584 127.424 66.6584C127.239 66.6584 127.075 66.6978 126.932 66.7766C126.791 66.8555 126.68 66.9705 126.6 67.1218C126.521 67.271 126.48 67.451 126.478 67.6619ZM132.97 70.5959C132.465 70.5959 132.03 70.4936 131.666 70.2891C131.304 70.0824 131.025 69.7905 130.829 69.4134C130.633 69.0341 130.535 68.5856 130.535 68.0678C130.535 67.5629 130.633 67.1197 130.829 66.7383C131.025 66.3569 131.301 66.0597 131.656 65.8466C132.014 65.6335 132.434 65.527 132.916 65.527C133.24 65.527 133.541 65.5792 133.82 65.6836C134.101 65.7859 134.346 65.9403 134.555 66.147C134.766 66.3537 134.93 66.6136 135.047 66.9268C135.165 67.2379 135.223 67.6023 135.223 68.0199V68.3938H131.078V67.5501H133.942C133.942 67.354 133.899 67.1804 133.814 67.0291C133.729 66.8778 133.61 66.7596 133.459 66.6744C133.31 66.587 133.136 66.5433 132.938 66.5433C132.731 66.5433 132.548 66.5913 132.388 66.6871C132.231 66.7809 132.107 66.9077 132.018 67.0675C131.928 67.2251 131.882 67.4009 131.88 67.5948V68.397C131.88 68.6399 131.925 68.8498 132.014 69.0266C132.106 69.2035 132.235 69.3398 132.401 69.4357C132.567 69.5316 132.764 69.5795 132.992 69.5795C133.144 69.5795 133.282 69.5582 133.408 69.5156C133.534 69.473 133.641 69.4091 133.731 69.3239C133.82 69.2386 133.888 69.1342 133.935 69.0107L135.194 69.0938C135.131 69.3963 134.999 69.6605 134.801 69.8864C134.605 70.1101 134.352 70.2848 134.041 70.4105C133.732 70.5341 133.375 70.5959 132.97 70.5959ZM136.112 70.5V65.5909H137.432V66.4474H137.483C137.572 66.1428 137.722 65.9126 137.933 65.7571C138.144 65.5994 138.387 65.5206 138.662 65.5206C138.73 65.5206 138.804 65.5249 138.883 65.5334C138.961 65.5419 139.031 65.5536 139.09 65.5685V66.7766C139.026 66.7575 138.938 66.7404 138.825 66.7255C138.712 66.7106 138.609 66.7031 138.515 66.7031C138.315 66.7031 138.136 66.7468 137.978 66.8342C137.823 66.9194 137.699 67.0387 137.607 67.1921C137.518 67.3455 137.473 67.5224 137.473 67.7227V70.5H136.112Z" fill="#8A8078"/>
<path d="M29.6899 92.5V100.5H28.7524L24.3931 94.2187H24.3149V100.5H23.3462V92.5H24.2837L28.6587 98.7969H28.7368V92.5H29.6899ZM34.019 100.625C33.4409 100.625 32.9422 100.497 32.5229 100.242C32.1063 99.9844 31.7847 99.625 31.5581 99.1641C31.3341 98.7005 31.2222 98.1615 31.2222 97.5469C31.2222 96.9323 31.3341 96.3906 31.5581 95.9219C31.7847 95.4505 32.0998 95.0833 32.5034 94.8203C32.9097 94.5547 33.3836 94.4219 33.9253 94.4219C34.2378 94.4219 34.5464 94.474 34.8511 94.5781C35.1558 94.6823 35.4331 94.8516 35.6831 95.0859C35.9331 95.3177 36.1323 95.625 36.2808 96.0078C36.4292 96.3906 36.5034 96.862 36.5034 97.4219V97.8125H31.8784V97.0156H35.5659C35.5659 96.6771 35.4982 96.375 35.3628 96.1094C35.23 95.8437 35.0399 95.6341 34.7925 95.4805C34.5477 95.3268 34.2586 95.25 33.9253 95.25C33.5581 95.25 33.2404 95.3411 32.9722 95.5234C32.7065 95.7031 32.5021 95.9375 32.3589 96.2266C32.2157 96.5156 32.144 96.8255 32.144 97.1562V97.6875C32.144 98.1406 32.2222 98.5247 32.3784 98.8398C32.5373 99.1523 32.7573 99.3906 33.0386 99.5547C33.3198 99.7161 33.6466 99.7969 34.019 99.7969C34.2612 99.7969 34.48 99.763 34.6753 99.6953C34.8732 99.625 35.0438 99.5208 35.187 99.3828C35.3302 99.2422 35.4409 99.0677 35.519 98.8594L36.4097 99.1094C36.3159 99.4115 36.1584 99.6771 35.937 99.9062C35.7157 100.133 35.4422 100.31 35.1167 100.437C34.7912 100.563 34.4253 100.625 34.019 100.625ZM39.2651 100.5L37.437 94.5H38.4058L39.7026 99.0938H39.7651L41.0464 94.5H42.0308L43.2964 99.0781H43.3589L44.6558 94.5H45.6245L43.7964 100.5H42.8901L41.5776 95.8906H41.4839L40.1714 100.5H39.2651ZM52.5464 94.5V95.2812H49.437V94.5H52.5464ZM50.3433 93.0625H51.2651V98.7812C51.2651 99.0417 51.3029 99.237 51.3784 99.3672C51.4565 99.4948 51.5555 99.5807 51.6753 99.625C51.7977 99.6667 51.9266 99.6875 52.062 99.6875C52.1636 99.6875 52.2469 99.6823 52.312 99.6719C52.3771 99.6589 52.4292 99.6484 52.4683 99.6406L52.6558 100.469C52.5933 100.492 52.506 100.516 52.394 100.539C52.2821 100.565 52.1401 100.578 51.9683 100.578C51.7078 100.578 51.4526 100.522 51.2026 100.41C50.9552 100.298 50.7495 100.128 50.5854 99.8984C50.424 99.6693 50.3433 99.3802 50.3433 99.0312V93.0625ZM56.3062 100.625C55.7645 100.625 55.2892 100.496 54.8804 100.238C54.4741 99.9805 54.1564 99.6198 53.9272 99.1562C53.7007 98.6927 53.5874 98.151 53.5874 97.5312C53.5874 96.9062 53.7007 96.3607 53.9272 95.8945C54.1564 95.4284 54.4741 95.0664 54.8804 94.8086C55.2892 94.5508 55.7645 94.4219 56.3062 94.4219C56.8478 94.4219 57.3218 94.5508 57.728 94.8086C58.1369 95.0664 58.4546 95.4284 58.6812 95.8945C58.9103 96.3607 59.0249 96.9062 59.0249 97.5312C59.0249 98.151 58.9103 98.6927 58.6812 99.1562C58.4546 99.6198 58.1369 99.9805 57.728 100.238C57.3218 100.496 56.8478 100.625 56.3062 100.625ZM56.3062 99.7969C56.7176 99.7969 57.0562 99.6914 57.3218 99.4805C57.5874 99.2695 57.784 98.9922 57.9116 98.6484C58.0392 98.3047 58.103 97.9323 58.103 97.5312C58.103 97.1302 58.0392 96.7565 57.9116 96.4102C57.784 96.0638 57.5874 95.7839 57.3218 95.5703C57.0562 95.3568 56.7176 95.25 56.3062 95.25C55.8947 95.25 55.5562 95.3568 55.2905 95.5703C55.0249 95.7839 54.8283 96.0638 54.7007 96.4102C54.5731 96.7565 54.5093 97.1302 54.5093 97.5312C54.5093 97.9323 54.5731 98.3047 54.7007 98.6484C54.8283 98.9922 55.0249 99.2695 55.2905 99.4805C55.5562 99.6914 55.8947 99.7969 56.3062 99.7969ZM62.8696 100.625C62.328 100.625 61.8527 100.496 61.4438 100.238C61.0376 99.9805 60.7199 99.6198 60.4907 99.1562C60.2642 98.6927 60.1509 98.151 60.1509 97.5312C60.1509 96.9062 60.2642 96.3607 60.4907 95.8945C60.7199 95.4284 61.0376 95.0664 61.4438 94.8086C61.8527 94.5508 62.328 94.4219 62.8696 94.4219C63.4113 94.4219 63.8853 94.5508 64.2915 94.8086C64.7004 95.0664 65.0181 95.4284 65.2446 95.8945C65.4738 96.3607 65.5884 96.9062 65.5884 97.5312C65.5884 98.151 65.4738 98.6927 65.2446 99.1562C65.0181 99.6198 64.7004 99.9805 64.2915 100.238C63.8853 100.496 63.4113 100.625 62.8696 100.625ZM62.8696 99.7969C63.2811 99.7969 63.6196 99.6914 63.8853 99.4805C64.1509 99.2695 64.3475 98.9922 64.4751 98.6484C64.6027 98.3047 64.6665 97.9323 64.6665 97.5312C64.6665 97.1302 64.6027 96.7565 64.4751 96.4102C64.3475 96.0638 64.1509 95.7839 63.8853 95.5703C63.6196 95.3568 63.2811 95.25 62.8696 95.25C62.4582 95.25 62.1196 95.3568 61.854 95.5703C61.5884 95.7839 61.3918 96.0638 61.2642 96.4102C61.1366 96.7565 61.0728 97.1302 61.0728 97.5312C61.0728 97.9323 61.1366 98.3047 61.2642 98.6484C61.3918 98.9922 61.5884 99.2695 61.854 99.4805C62.1196 99.6914 62.4582 99.7969 62.8696 99.7969ZM67.9175 92.5V100.5H66.9956V92.5H67.9175ZM73.856 95.8437L73.0278 96.0781C72.9757 95.9401 72.8989 95.806 72.7974 95.6758C72.6984 95.543 72.563 95.4336 72.3911 95.3477C72.2192 95.2617 71.9992 95.2187 71.731 95.2187C71.3638 95.2187 71.0578 95.3034 70.813 95.4727C70.5708 95.6393 70.4497 95.8516 70.4497 96.1094C70.4497 96.3385 70.533 96.5195 70.6997 96.6523C70.8664 96.7852 71.1268 96.8958 71.481 96.9844L72.3716 97.2031C72.908 97.3333 73.3078 97.5326 73.5708 97.8008C73.8338 98.0664 73.9653 98.4089 73.9653 98.8281C73.9653 99.1719 73.8664 99.4792 73.6685 99.75C73.4731 100.021 73.1997 100.234 72.8481 100.391C72.4966 100.547 72.0877 100.625 71.6216 100.625C71.0096 100.625 70.5031 100.492 70.1021 100.227C69.701 99.9609 69.4471 99.5729 69.3403 99.0625L70.2153 98.8437C70.2987 99.1667 70.4562 99.4089 70.688 99.5703C70.9224 99.7318 71.2284 99.8125 71.606 99.8125C72.0356 99.8125 72.3768 99.7214 72.6294 99.5391C72.8846 99.3542 73.0122 99.1328 73.0122 98.875C73.0122 98.6667 72.9393 98.4922 72.7935 98.3516C72.6476 98.2083 72.4237 98.1016 72.1216 98.0312L71.1216 97.7969C70.5721 97.6667 70.1685 97.4648 69.9106 97.1914C69.6554 96.9154 69.5278 96.5703 69.5278 96.1562C69.5278 95.8177 69.6229 95.5182 69.813 95.2578C70.0057 94.9974 70.2674 94.793 70.5981 94.6445C70.9315 94.4961 71.3091 94.4219 71.731 94.4219C72.3247 94.4219 72.7909 94.5521 73.1294 94.8125C73.4705 95.0729 73.7127 95.4167 73.856 95.8437ZM80.2124 100.641C79.8322 100.641 79.4871 100.569 79.1772 100.426C78.8674 100.28 78.6213 100.07 78.439 99.7969C78.2567 99.5208 78.1655 99.1875 78.1655 98.7969C78.1655 98.4531 78.2332 98.1745 78.3687 97.9609C78.5041 97.7448 78.6851 97.5755 78.9116 97.4531C79.1382 97.3307 79.3882 97.2396 79.6616 97.1797C79.9377 97.1172 80.215 97.0677 80.4937 97.0313C80.8582 96.9844 81.1538 96.9492 81.3804 96.9258C81.6095 96.8997 81.7762 96.8568 81.8804 96.7969C81.9871 96.737 82.0405 96.6328 82.0405 96.4844V96.4531C82.0405 96.0677 81.9351 95.7682 81.7241 95.5547C81.5158 95.3411 81.1994 95.2344 80.7749 95.2344C80.3348 95.2344 79.9897 95.3307 79.7397 95.5234C79.4897 95.7161 79.314 95.9219 79.2124 96.1406L78.3374 95.8281C78.4937 95.4635 78.702 95.1797 78.9624 94.9766C79.2254 94.7708 79.5119 94.6276 79.8218 94.5469C80.1343 94.4635 80.4416 94.4219 80.7437 94.4219C80.9364 94.4219 81.1577 94.4453 81.4077 94.4922C81.6603 94.5365 81.9038 94.6289 82.1382 94.7695C82.3752 94.9102 82.5718 95.1224 82.728 95.4062C82.8843 95.6901 82.9624 96.0703 82.9624 96.5469V100.5H82.0405V99.6875H81.9937C81.9312 99.8177 81.827 99.957 81.6812 100.105C81.5353 100.254 81.3413 100.38 81.0991 100.484C80.8569 100.589 80.5614 100.641 80.2124 100.641ZM80.353 99.8125C80.7176 99.8125 81.0249 99.7409 81.2749 99.5977C81.5275 99.4544 81.7176 99.2695 81.8452 99.043C81.9754 98.8164 82.0405 98.5781 82.0405 98.3281V97.4844C82.0015 97.5312 81.9155 97.5742 81.7827 97.6133C81.6525 97.6497 81.5015 97.6823 81.3296 97.7109C81.1603 97.737 80.995 97.7604 80.8335 97.7812C80.6746 97.7995 80.5457 97.8151 80.4468 97.8281C80.2072 97.8594 79.9832 97.9102 79.7749 97.9805C79.5692 98.0482 79.4025 98.151 79.2749 98.2891C79.1499 98.4245 79.0874 98.6094 79.0874 98.8437C79.0874 99.1641 79.2059 99.4062 79.4429 99.5703C79.6825 99.7318 79.9858 99.8125 80.353 99.8125ZM85.5669 96.8906V100.5H84.645V94.5H85.5356V95.4375H85.6138C85.7544 95.1328 85.9679 94.888 86.2544 94.7031C86.5409 94.5156 86.9106 94.4219 87.3638 94.4219C87.77 94.4219 88.1255 94.5052 88.4302 94.6719C88.7349 94.8359 88.9718 95.0859 89.1411 95.4219C89.3104 95.7552 89.395 96.1771 89.395 96.6875V100.5H88.4731V96.75C88.4731 96.2786 88.3507 95.9115 88.106 95.6484C87.8612 95.3828 87.5252 95.25 87.0981 95.25C86.8039 95.25 86.5409 95.3138 86.3091 95.4414C86.0799 95.569 85.8989 95.7552 85.7661 96C85.6333 96.2448 85.5669 96.5417 85.5669 96.8906ZM93.3452 100.625C92.8452 100.625 92.4038 100.499 92.021 100.246C91.6382 99.9909 91.3387 99.6315 91.1226 99.168C90.9064 98.7018 90.7983 98.151 90.7983 97.5156C90.7983 96.8854 90.9064 96.3385 91.1226 95.875C91.3387 95.4115 91.6395 95.0534 92.0249 94.8008C92.4103 94.5482 92.8556 94.4219 93.3608 94.4219C93.7515 94.4219 94.0601 94.487 94.2866 94.6172C94.5158 94.7448 94.6903 94.8906 94.8101 95.0547C94.9325 95.2161 95.0275 95.349 95.0952 95.4531H95.1733V92.5H96.0952V100.5H95.2046V99.5781H95.0952C95.0275 99.6875 94.9312 99.8255 94.8062 99.9922C94.6812 100.156 94.5028 100.303 94.271 100.434C94.0392 100.561 93.7306 100.625 93.3452 100.625ZM93.4702 99.7969C93.84 99.7969 94.1525 99.7005 94.4077 99.5078C94.6629 99.3125 94.8569 99.043 94.9897 98.6992C95.1226 98.3529 95.189 97.9531 95.189 97.5C95.189 97.0521 95.1239 96.6602 94.9937 96.3242C94.8634 95.9857 94.6707 95.7227 94.4155 95.5352C94.1603 95.3451 93.8452 95.25 93.4702 95.25C93.0796 95.25 92.7541 95.3503 92.4937 95.5508C92.2358 95.7487 92.0418 96.0182 91.9116 96.3594C91.784 96.6979 91.7202 97.0781 91.7202 97.5C91.7202 97.9271 91.7853 98.3151 91.9155 98.6641C92.0483 99.0104 92.2437 99.2865 92.5015 99.4922C92.7619 99.6953 93.0848 99.7969 93.4702 99.7969ZM103.677 94.5V95.2812H100.443V94.5H103.677ZM101.412 100.5V93.6719C101.412 93.3281 101.492 93.0417 101.654 92.8125C101.815 92.5833 102.025 92.4115 102.283 92.2969C102.541 92.1823 102.813 92.125 103.099 92.125C103.326 92.125 103.511 92.1432 103.654 92.1797C103.797 92.2161 103.904 92.25 103.974 92.2812L103.708 93.0781C103.662 93.0625 103.597 93.043 103.513 93.0195C103.432 92.9961 103.326 92.9844 103.193 92.9844C102.888 92.9844 102.668 93.0612 102.533 93.2148C102.4 93.3685 102.333 93.5937 102.333 93.8906V100.5H101.412ZM107.238 100.625C106.66 100.625 106.161 100.497 105.742 100.242C105.325 99.9844 105.003 99.625 104.777 99.1641C104.553 98.7005 104.441 98.1615 104.441 97.5469C104.441 96.9323 104.553 96.3906 104.777 95.9219C105.003 95.4505 105.319 95.0833 105.722 94.8203C106.128 94.5547 106.602 94.4219 107.144 94.4219C107.457 94.4219 107.765 94.474 108.07 94.5781C108.375 94.6823 108.652 94.8516 108.902 95.0859C109.152 95.3177 109.351 95.625 109.5 96.0078C109.648 96.3906 109.722 96.862 109.722 97.4219V97.8125H105.097V97.0156H108.785C108.785 96.6771 108.717 96.375 108.582 96.1094C108.449 95.8437 108.259 95.6341 108.011 95.4805C107.766 95.3268 107.477 95.25 107.144 95.25C106.777 95.25 106.459 95.3411 106.191 95.5234C105.925 95.7031 105.721 95.9375 105.578 96.2266C105.434 96.5156 105.363 96.8255 105.363 97.1562V97.6875C105.363 98.1406 105.441 98.5247 105.597 98.8398C105.756 99.1523 105.976 99.3906 106.257 99.5547C106.539 99.7161 106.865 99.7969 107.238 99.7969C107.48 99.7969 107.699 99.763 107.894 99.6953C108.092 99.625 108.263 99.5208 108.406 99.3828C108.549 99.2422 108.66 99.0677 108.738 98.8594L109.628 99.1094C109.535 99.4115 109.377 99.6771 109.156 99.9062C108.934 100.133 108.661 100.31 108.335 100.437C108.01 100.563 107.644 100.625 107.238 100.625ZM112.89 100.641C112.51 100.641 112.165 100.569 111.855 100.426C111.545 100.28 111.299 100.07 111.117 99.7969C110.934 99.5208 110.843 99.1875 110.843 98.7969C110.843 98.4531 110.911 98.1745 111.046 97.9609C111.182 97.7448 111.363 97.5755 111.589 97.4531C111.816 97.3307 112.066 97.2396 112.339 97.1797C112.615 97.1172 112.893 97.0677 113.171 97.0313C113.536 96.9844 113.832 96.9492 114.058 96.9258C114.287 96.8997 114.454 96.8568 114.558 96.7969C114.665 96.737 114.718 96.6328 114.718 96.4844V96.4531C114.718 96.0677 114.613 95.7682 114.402 95.5547C114.194 95.3411 113.877 95.2344 113.453 95.2344C113.013 95.2344 112.667 95.3307 112.417 95.5234C112.167 95.7161 111.992 95.9219 111.89 96.1406L111.015 95.8281C111.171 95.4635 111.38 95.1797 111.64 94.9766C111.903 94.7708 112.19 94.6276 112.5 94.5469C112.812 94.4635 113.119 94.4219 113.421 94.4219C113.614 94.4219 113.835 94.4453 114.085 94.4922C114.338 94.5365 114.582 94.6289 114.816 94.7695C115.053 94.9102 115.25 95.1224 115.406 95.4062C115.562 95.6901 115.64 96.0703 115.64 96.5469V100.5H114.718V99.6875H114.671C114.609 99.8177 114.505 99.957 114.359 100.105C114.213 100.254 114.019 100.38 113.777 100.484C113.535 100.589 113.239 100.641 112.89 100.641ZM113.031 99.8125C113.395 99.8125 113.703 99.7409 113.953 99.5977C114.205 99.4544 114.395 99.2695 114.523 99.043C114.653 98.8164 114.718 98.5781 114.718 98.3281V97.4844C114.679 97.5312 114.593 97.5742 114.46 97.6133C114.33 97.6497 114.179 97.6823 114.007 97.7109C113.838 97.737 113.673 97.7604 113.511 97.7812C113.352 97.7995 113.223 97.8151 113.125 97.8281C112.885 97.8594 112.661 97.9102 112.453 97.9805C112.247 98.0482 112.08 98.151 111.953 98.2891C111.828 98.4245 111.765 98.6094 111.765 98.8437C111.765 99.1641 111.884 99.4062 112.121 99.5703C112.36 99.7318 112.664 99.8125 113.031 99.8125ZM119.932 94.5V95.2812H116.823V94.5H119.932ZM117.729 93.0625H118.651V98.7812C118.651 99.0417 118.689 99.237 118.764 99.3672C118.842 99.4948 118.941 99.5807 119.061 99.625C119.183 99.6667 119.312 99.6875 119.448 99.6875C119.549 99.6875 119.633 99.6823 119.698 99.6719C119.763 99.6589 119.815 99.6484 119.854 99.6406L120.042 100.469C119.979 100.492 119.892 100.516 119.78 100.539C119.668 100.565 119.526 100.578 119.354 100.578C119.094 100.578 118.838 100.522 118.588 100.41C118.341 100.298 118.135 100.128 117.971 99.8984C117.81 99.6693 117.729 99.3802 117.729 99.0312V93.0625ZM125.1 98.0469V94.5H126.022V100.5H125.1V99.4844H125.038C124.897 99.7891 124.678 100.048 124.381 100.262C124.084 100.473 123.709 100.578 123.256 100.578C122.881 100.578 122.548 100.496 122.256 100.332C121.965 100.165 121.736 99.9154 121.569 99.582C121.402 99.2461 121.319 98.8229 121.319 98.3125V94.5H122.241V98.25C122.241 98.6875 122.363 99.0365 122.608 99.2969C122.855 99.5573 123.17 99.6875 123.553 99.6875C123.782 99.6875 124.015 99.6289 124.252 99.5117C124.492 99.3945 124.693 99.2148 124.854 98.9727C125.018 98.7305 125.1 98.4219 125.1 98.0469ZM127.71 100.5V94.5H128.601V95.4062H128.664C128.773 95.1094 128.971 94.8685 129.257 94.6836C129.544 94.4987 129.867 94.4062 130.226 94.4062C130.294 94.4062 130.378 94.4076 130.48 94.4102C130.582 94.4128 130.658 94.4167 130.71 94.4219V95.3594C130.679 95.3516 130.608 95.3398 130.496 95.3242C130.386 95.306 130.27 95.2969 130.148 95.2969C129.856 95.2969 129.596 95.3581 129.367 95.4805C129.14 95.6003 128.96 95.7669 128.828 95.9805C128.697 96.1914 128.632 96.4323 128.632 96.7031V100.5H127.71ZM134.136 100.625C133.558 100.625 133.059 100.497 132.64 100.242C132.223 99.9844 131.902 99.625 131.675 99.1641C131.451 98.7005 131.339 98.1615 131.339 97.5469C131.339 96.9323 131.451 96.3906 131.675 95.9219C131.902 95.4505 132.217 95.0833 132.621 94.8203C133.027 94.5547 133.501 94.4219 134.042 94.4219C134.355 94.4219 134.664 94.474 134.968 94.5781C135.273 94.6823 135.55 94.8516 135.8 95.0859C136.05 95.3177 136.25 95.625 136.398 96.0078C136.546 96.3906 136.621 96.862 136.621 97.4219V97.8125H131.996V97.0156H135.683C135.683 96.6771 135.615 96.375 135.48 96.1094C135.347 95.8437 135.157 95.6341 134.91 95.4805C134.665 95.3268 134.376 95.25 134.042 95.25C133.675 95.25 133.358 95.3411 133.089 95.5234C132.824 95.7031 132.619 95.9375 132.476 96.2266C132.333 96.5156 132.261 96.8255 132.261 97.1562V97.6875C132.261 98.1406 132.339 98.5247 132.496 98.8398C132.654 99.1523 132.875 99.3906 133.156 99.5547C133.437 99.7161 133.764 99.7969 134.136 99.7969C134.378 99.7969 134.597 99.763 134.792 99.6953C134.99 99.625 135.161 99.5208 135.304 99.3828C135.447 99.2422 135.558 99.0677 135.636 98.8594L136.527 99.1094C136.433 99.4115 136.276 99.6771 136.054 99.9062C135.833 100.133 135.559 100.31 135.234 100.437C134.908 100.563 134.542 100.625 134.136 100.625ZM142.273 95.8437L141.445 96.0781C141.393 95.9401 141.316 95.806 141.214 95.6758C141.115 95.543 140.98 95.4336 140.808 95.3477C140.636 95.2617 140.416 95.2187 140.148 95.2187C139.781 95.2187 139.475 95.3034 139.23 95.4727C138.988 95.6393 138.867 95.8516 138.867 96.1094C138.867 96.3385 138.95 96.5195 139.117 96.6523C139.283 96.7852 139.544 96.8958 139.898 96.9844L140.789 97.2031C141.325 97.3333 141.725 97.5326 141.988 97.8008C142.251 98.0664 142.382 98.4089 142.382 98.8281C142.382 99.1719 142.283 99.4792 142.085 99.75C141.89 100.021 141.617 100.234 141.265 100.391C140.914 100.547 140.505 100.625 140.039 100.625C139.427 100.625 138.92 100.492 138.519 100.227C138.118 99.9609 137.864 99.5729 137.757 99.0625L138.632 98.8437C138.716 99.1667 138.873 99.4089 139.105 99.5703C139.339 99.7318 139.645 99.8125 140.023 99.8125C140.453 99.8125 140.794 99.7214 141.046 99.5391C141.302 99.3542 141.429 99.1328 141.429 98.875C141.429 98.6667 141.356 98.4922 141.21 98.3516C141.065 98.2083 140.841 98.1016 140.539 98.0312L139.539 97.7969C138.989 97.6667 138.585 97.4648 138.328 97.1914C138.072 96.9154 137.945 96.5703 137.945 96.1562C137.945 95.8177 138.04 95.5182 138.23 95.2578C138.423 94.9974 138.684 94.793 139.015 94.6445C139.348 94.4961 139.726 94.4219 140.148 94.4219C140.742 94.4219 141.208 94.5521 141.546 94.8125C141.888 95.0729 142.13 95.4167 142.273 95.8437ZM148.629 100.641C148.249 100.641 147.904 100.569 147.594 100.426C147.284 100.28 147.038 100.07 146.856 99.7969C146.674 99.5208 146.583 99.1875 146.583 98.7969C146.583 98.4531 146.65 98.1745 146.786 97.9609C146.921 97.7448 147.102 97.5755 147.329 97.4531C147.555 97.3307 147.805 97.2396 148.079 97.1797C148.355 97.1172 148.632 97.0677 148.911 97.0313C149.275 96.9844 149.571 96.9492 149.797 96.9258C150.027 96.8997 150.193 96.8568 150.297 96.7969C150.404 96.737 150.458 96.6328 150.458 96.4844V96.4531C150.458 96.0677 150.352 95.7682 150.141 95.5547C149.933 95.3411 149.616 95.2344 149.192 95.2344C148.752 95.2344 148.407 95.3307 148.157 95.5234C147.907 95.7161 147.731 95.9219 147.629 96.1406L146.754 95.8281C146.911 95.4635 147.119 95.1797 147.379 94.9766C147.642 94.7708 147.929 94.6276 148.239 94.5469C148.551 94.4635 148.859 94.4219 149.161 94.4219C149.353 94.4219 149.575 94.4453 149.825 94.4922C150.077 94.5365 150.321 94.6289 150.555 94.7695C150.792 94.9102 150.989 95.1224 151.145 95.4062C151.301 95.6901 151.379 96.0703 151.379 96.5469V100.5H150.458V99.6875H150.411C150.348 99.8177 150.244 99.957 150.098 100.105C149.952 100.254 149.758 100.38 149.516 100.484C149.274 100.589 148.978 100.641 148.629 100.641ZM148.77 99.8125C149.135 99.8125 149.442 99.7409 149.692 99.5977C149.944 99.4544 150.135 99.2695 150.262 99.043C150.392 98.8164 150.458 98.5781 150.458 98.3281V97.4844C150.418 97.5312 150.333 97.5742 150.2 97.6133C150.069 97.6497 149.918 97.6823 149.747 97.7109C149.577 97.737 149.412 97.7604 149.25 97.7812C149.092 97.7995 148.963 97.8151 148.864 97.8281C148.624 97.8594 148.4 97.9102 148.192 97.9805C147.986 98.0482 147.819 98.151 147.692 98.2891C147.567 98.4245 147.504 98.6094 147.504 98.8437C147.504 99.1641 147.623 99.4062 147.86 99.5703C148.099 99.7318 148.403 99.8125 148.77 99.8125ZM153.062 100.5V94.5H153.953V95.4062H154.015C154.125 95.1094 154.322 94.8685 154.609 94.6836C154.895 94.4987 155.218 94.4062 155.578 94.4062C155.645 94.4062 155.73 94.4076 155.832 94.4102C155.933 94.4128 156.01 94.4167 156.062 94.4219V95.3594C156.031 95.3516 155.959 95.3398 155.847 95.3242C155.738 95.306 155.622 95.2969 155.5 95.2969C155.208 95.2969 154.947 95.3581 154.718 95.4805C154.492 95.6003 154.312 95.7669 154.179 95.9805C154.049 96.1914 153.984 96.4323 153.984 96.7031V100.5H153.062ZM159.488 100.625C158.91 100.625 158.411 100.497 157.992 100.242C157.575 99.9844 157.253 99.625 157.027 99.1641C156.803 98.7005 156.691 98.1615 156.691 97.5469C156.691 96.9323 156.803 96.3906 157.027 95.9219C157.253 95.4505 157.569 95.0833 157.972 94.8203C158.378 94.5547 158.852 94.4219 159.394 94.4219C159.707 94.4219 160.015 94.474 160.32 94.5781C160.625 94.6823 160.902 94.8516 161.152 95.0859C161.402 95.3177 161.601 95.625 161.75 96.0078C161.898 96.3906 161.972 96.862 161.972 97.4219V97.8125H157.347V97.0156H161.035C161.035 96.6771 160.967 96.375 160.832 96.1094C160.699 95.8437 160.509 95.6341 160.261 95.4805C160.016 95.3268 159.727 95.25 159.394 95.25C159.027 95.25 158.709 95.3411 158.441 95.5234C158.175 95.7031 157.971 95.9375 157.828 96.2266C157.684 96.5156 157.613 96.8255 157.613 97.1562V97.6875C157.613 98.1406 157.691 98.5247 157.847 98.8398C158.006 99.1523 158.226 99.3906 158.507 99.5547C158.789 99.7161 159.115 99.7969 159.488 99.7969C159.73 99.7969 159.949 99.763 160.144 99.6953C160.342 99.625 160.513 99.5208 160.656 99.3828C160.799 99.2422 160.91 99.0677 160.988 98.8594L161.878 99.1094C161.785 99.4115 161.627 99.6771 161.406 99.9062C161.184 100.133 160.911 100.31 160.585 100.437C160.26 100.563 159.894 100.625 159.488 100.625ZM168.906 100.625C168.364 100.625 167.889 100.496 167.48 100.238C167.074 99.9805 166.756 99.6198 166.527 99.1562C166.3 98.6927 166.187 98.151 166.187 97.5312C166.187 96.9062 166.3 96.3607 166.527 95.8945C166.756 95.4284 167.074 95.0664 167.48 94.8086C167.889 94.5508 168.364 94.4219 168.906 94.4219C169.447 94.4219 169.921 94.5508 170.328 94.8086C170.736 95.0664 171.054 95.4284 171.281 95.8945C171.51 96.3607 171.625 96.9062 171.625 97.5312C171.625 98.151 171.51 98.6927 171.281 99.1562C171.054 99.6198 170.736 99.9805 170.328 100.238C169.921 100.496 169.447 100.625 168.906 100.625ZM168.906 99.7969C169.317 99.7969 169.656 99.6914 169.921 99.4805C170.187 99.2695 170.384 98.9922 170.511 98.6484C170.639 98.3047 170.703 97.9323 170.703 97.5312C170.703 97.1302 170.639 96.7565 170.511 96.4102C170.384 96.0638 170.187 95.7839 169.921 95.5703C169.656 95.3568 169.317 95.25 168.906 95.25C168.494 95.25 168.156 95.3568 167.89 95.5703C167.625 95.7839 167.428 96.0638 167.3 96.4102C167.173 96.7565 167.109 97.1302 167.109 97.5312C167.109 97.9323 167.173 98.3047 167.3 98.6484C167.428 98.9922 167.625 99.2695 167.89 99.4805C168.156 99.6914 168.494 99.7969 168.906 99.7969ZM173.954 96.8906V100.5H173.032V94.5H173.922V95.4375H174C174.141 95.1328 174.355 94.888 174.641 94.7031C174.928 94.5156 175.297 94.4219 175.75 94.4219C176.157 94.4219 176.512 94.5052 176.817 94.6719C177.122 94.8359 177.359 95.0859 177.528 95.4219C177.697 95.7552 177.782 96.1771 177.782 96.6875V100.5H176.86V96.75C176.86 96.2786 176.737 95.9115 176.493 95.6484C176.248 95.3828 175.912 95.25 175.485 95.25C175.191 95.25 174.928 95.3138 174.696 95.4414C174.467 95.569 174.286 95.7552 174.153 96C174.02 96.2448 173.954 96.5417 173.954 96.8906Z" fill="#C8C0B4"/>
<path d="M79.7935 112.5V113.281H76.6841V112.5H79.7935ZM77.5903 111.062H78.5122V116.781C78.5122 117.042 78.55 117.237 78.6255 117.367C78.7036 117.495 78.8026 117.581 78.9224 117.625C79.0448 117.667 79.1737 117.687 79.3091 117.687C79.4106 117.687 79.494 117.682 79.5591 117.672C79.6242 117.659 79.6763 117.648 79.7153 117.641L79.9028 118.469C79.8403 118.492 79.7531 118.516 79.6411 118.539C79.5291 118.565 79.3872 118.578 79.2153 118.578C78.9549 118.578 78.6997 118.522 78.4497 118.41C78.2023 118.298 77.9966 118.128 77.8325 117.898C77.6711 117.669 77.5903 117.38 77.5903 117.031V111.062ZM82.231 114.891V118.5H81.3091V110.5H82.231V113.437H82.3091C82.4497 113.128 82.6606 112.882 82.9419 112.699C83.2257 112.514 83.6034 112.422 84.0747 112.422C84.4836 112.422 84.8416 112.504 85.1489 112.668C85.4562 112.829 85.6945 113.078 85.8638 113.414C86.0356 113.747 86.1216 114.172 86.1216 114.688V118.5H85.1997V114.75C85.1997 114.273 85.076 113.905 84.8286 113.645C84.5838 113.382 84.244 113.25 83.8091 113.25C83.507 113.25 83.2362 113.314 82.9966 113.441C82.7596 113.569 82.5721 113.755 82.4341 114C82.2987 114.245 82.231 114.542 82.231 114.891ZM90.3237 118.625C89.7456 118.625 89.2469 118.497 88.8276 118.242C88.411 117.984 88.0894 117.625 87.8628 117.164C87.6388 116.701 87.5269 116.161 87.5269 115.547C87.5269 114.932 87.6388 114.391 87.8628 113.922C88.0894 113.451 88.4045 113.083 88.8081 112.82C89.2144 112.555 89.6883 112.422 90.23 112.422C90.5425 112.422 90.8511 112.474 91.1558 112.578C91.4604 112.682 91.7378 112.852 91.9878 113.086C92.2378 113.318 92.437 113.625 92.5854 114.008C92.7339 114.391 92.8081 114.862 92.8081 115.422V115.812H88.1831V115.016H91.8706C91.8706 114.677 91.8029 114.375 91.6675 114.109C91.5347 113.844 91.3446 113.634 91.0972 113.48C90.8524 113.327 90.5633 113.25 90.23 113.25C89.8628 113.25 89.5451 113.341 89.2769 113.523C89.0112 113.703 88.8068 113.937 88.6636 114.227C88.5203 114.516 88.4487 114.826 88.4487 115.156V115.688C88.4487 116.141 88.5269 116.525 88.6831 116.84C88.842 117.152 89.062 117.391 89.3433 117.555C89.6245 117.716 89.9513 117.797 90.3237 117.797C90.5659 117.797 90.7847 117.763 90.98 117.695C91.1779 117.625 91.3485 117.521 91.4917 117.383C91.6349 117.242 91.7456 117.068 91.8237 116.859L92.7144 117.109C92.6206 117.411 92.4631 117.677 92.2417 117.906C92.0203 118.133 91.7469 118.31 91.4214 118.437C91.0959 118.563 90.73 118.625 90.3237 118.625ZM98.6636 118.5L96.8354 112.5H97.8042L99.1011 117.094H99.1636L100.445 112.5H101.429L102.695 117.078H102.757L104.054 112.5H105.023L103.195 118.5H102.289L100.976 113.891H100.882L99.5698 118.5H98.6636ZM108.007 118.641C107.627 118.641 107.282 118.569 106.972 118.426C106.662 118.28 106.416 118.07 106.234 117.797C106.052 117.521 105.96 117.187 105.96 116.797C105.96 116.453 106.028 116.174 106.164 115.961C106.299 115.745 106.48 115.576 106.707 115.453C106.933 115.331 107.183 115.24 107.457 115.18C107.733 115.117 108.01 115.068 108.289 115.031C108.653 114.984 108.949 114.949 109.175 114.926C109.404 114.9 109.571 114.857 109.675 114.797C109.782 114.737 109.835 114.633 109.835 114.484V114.453C109.835 114.068 109.73 113.768 109.519 113.555C109.311 113.341 108.994 113.234 108.57 113.234C108.13 113.234 107.785 113.331 107.535 113.523C107.285 113.716 107.109 113.922 107.007 114.141L106.132 113.828C106.289 113.464 106.497 113.18 106.757 112.977C107.02 112.771 107.307 112.628 107.617 112.547C107.929 112.464 108.236 112.422 108.539 112.422C108.731 112.422 108.953 112.445 109.203 112.492C109.455 112.536 109.699 112.629 109.933 112.77C110.17 112.91 110.367 113.122 110.523 113.406C110.679 113.69 110.757 114.07 110.757 114.547V118.5H109.835V117.687H109.789C109.726 117.818 109.622 117.957 109.476 118.105C109.33 118.254 109.136 118.38 108.894 118.484C108.652 118.589 108.356 118.641 108.007 118.641ZM108.148 117.812C108.513 117.812 108.82 117.741 109.07 117.598C109.322 117.454 109.513 117.27 109.64 117.043C109.77 116.816 109.835 116.578 109.835 116.328V115.484C109.796 115.531 109.71 115.574 109.578 115.613C109.447 115.65 109.296 115.682 109.125 115.711C108.955 115.737 108.79 115.76 108.628 115.781C108.47 115.799 108.341 115.815 108.242 115.828C108.002 115.859 107.778 115.91 107.57 115.98C107.364 116.048 107.197 116.151 107.07 116.289C106.945 116.424 106.882 116.609 106.882 116.844C106.882 117.164 107.001 117.406 107.238 117.57C107.477 117.732 107.781 117.812 108.148 117.812ZM112.819 120.75C112.663 120.75 112.523 120.737 112.401 120.711C112.278 120.688 112.194 120.664 112.147 120.641L112.381 119.828C112.605 119.885 112.803 119.906 112.975 119.891C113.147 119.875 113.299 119.798 113.432 119.66C113.568 119.525 113.691 119.305 113.803 119L113.975 118.531L111.756 112.5H112.756L114.413 117.281H114.475L116.131 112.5H117.131L114.584 119.375C114.47 119.685 114.328 119.941 114.159 120.145C113.989 120.35 113.793 120.503 113.569 120.602C113.347 120.701 113.097 120.75 112.819 120.75ZM119.567 110.5L119.489 116.25H118.583L118.504 110.5H119.567ZM119.036 118.563C118.843 118.563 118.678 118.493 118.54 118.355C118.402 118.217 118.333 118.052 118.333 117.859C118.333 117.667 118.402 117.501 118.54 117.363C118.678 117.225 118.843 117.156 119.036 117.156C119.228 117.156 119.394 117.225 119.532 117.363C119.67 117.501 119.739 117.667 119.739 117.859C119.739 117.987 119.706 118.104 119.641 118.211C119.579 118.318 119.494 118.404 119.387 118.469C119.283 118.531 119.166 118.563 119.036 118.563ZM32.6782 125.5V126.281H29.5688V125.5H32.6782ZM30.4751 124.062H31.397V129.781C31.397 130.042 31.4347 130.237 31.5103 130.367C31.5884 130.495 31.6873 130.581 31.8071 130.625C31.9295 130.667 32.0584 130.687 32.1938 130.687C32.2954 130.687 32.3787 130.682 32.4438 130.672C32.509 130.659 32.561 130.648 32.6001 130.641L32.7876 131.469C32.7251 131.492 32.6379 131.516 32.5259 131.539C32.4139 131.565 32.272 131.578 32.1001 131.578C31.8397 131.578 31.5845 131.522 31.3345 131.41C31.0871 131.298 30.8813 131.128 30.7173 130.898C30.5558 130.669 30.4751 130.38 30.4751 130.031V124.062ZM36.438 131.625C35.8963 131.625 35.4211 131.496 35.0122 131.238C34.606 130.98 34.2882 130.62 34.0591 130.156C33.8325 129.693 33.7192 129.151 33.7192 128.531C33.7192 127.906 33.8325 127.361 34.0591 126.895C34.2882 126.428 34.606 126.066 35.0122 125.809C35.4211 125.551 35.8963 125.422 36.438 125.422C36.9797 125.422 37.4536 125.551 37.8599 125.809C38.2687 126.066 38.5864 126.428 38.813 126.895C39.0422 127.361 39.1567 127.906 39.1567 128.531C39.1567 129.151 39.0422 129.693 38.813 130.156C38.5864 130.62 38.2687 130.98 37.8599 131.238C37.4536 131.496 36.9797 131.625 36.438 131.625ZM36.438 130.797C36.8494 130.797 37.188 130.691 37.4536 130.48C37.7192 130.27 37.9159 129.992 38.0435 129.648C38.1711 129.305 38.2349 128.932 38.2349 128.531C38.2349 128.13 38.1711 127.757 38.0435 127.41C37.9159 127.064 37.7192 126.784 37.4536 126.57C37.188 126.357 36.8494 126.25 36.438 126.25C36.0265 126.25 35.688 126.357 35.4224 126.57C35.1567 126.784 34.9601 127.064 34.8325 127.41C34.7049 127.757 34.6411 128.13 34.6411 128.531C34.6411 128.932 34.7049 129.305 34.8325 129.648C34.9601 129.992 35.1567 130.27 35.4224 130.48C35.688 130.691 36.0265 130.797 36.438 130.797ZM43.6577 131.5V125.5H44.5796V131.5H43.6577ZM44.1265 124.5C43.9468 124.5 43.7918 124.439 43.6616 124.316C43.534 124.194 43.4702 124.047 43.4702 123.875C43.4702 123.703 43.534 123.556 43.6616 123.434C43.7918 123.311 43.9468 123.25 44.1265 123.25C44.3062 123.25 44.4598 123.311 44.5874 123.434C44.7176 123.556 44.7827 123.703 44.7827 123.875C44.7827 124.047 44.7176 124.194 44.5874 124.316C44.4598 124.439 44.3062 124.5 44.1265 124.5ZM46.2681 131.5V125.5H47.1587V126.437H47.2368C47.3618 126.117 47.5636 125.868 47.8423 125.691C48.1209 125.512 48.4556 125.422 48.8462 125.422C49.242 125.422 49.5715 125.512 49.8345 125.691C50.1001 125.868 50.3071 126.117 50.4556 126.437H50.5181C50.6717 126.128 50.9022 125.882 51.2095 125.699C51.5168 125.514 51.8853 125.422 52.3149 125.422C52.8514 125.422 53.2902 125.59 53.6313 125.926C53.9725 126.259 54.1431 126.779 54.1431 127.484V131.5H53.2212V127.484C53.2212 127.042 53.1001 126.725 52.8579 126.535C52.6157 126.345 52.3306 126.25 52.0024 126.25C51.5806 126.25 51.2537 126.378 51.022 126.633C50.7902 126.885 50.6743 127.206 50.6743 127.594V131.5H49.7368V127.391C49.7368 127.049 49.6261 126.775 49.4048 126.566C49.1834 126.355 48.8983 126.25 48.5493 126.25C48.3097 126.25 48.0858 126.314 47.8774 126.441C47.6717 126.569 47.505 126.746 47.3774 126.973C47.2524 127.197 47.1899 127.456 47.1899 127.75V131.5H46.2681ZM55.8286 133.75V125.5H56.7192V126.453H56.8286C56.8963 126.349 56.9901 126.216 57.1099 126.055C57.2323 125.891 57.4067 125.745 57.6333 125.617C57.8625 125.487 58.1724 125.422 58.563 125.422C59.0682 125.422 59.5135 125.548 59.8989 125.801C60.2843 126.053 60.5851 126.411 60.8013 126.875C61.0174 127.339 61.1255 127.885 61.1255 128.516C61.1255 129.151 61.0174 129.702 60.8013 130.168C60.5851 130.632 60.2856 130.991 59.9028 131.246C59.52 131.499 59.0786 131.625 58.5786 131.625C58.1932 131.625 57.8846 131.561 57.6528 131.434C57.4211 131.303 57.2427 131.156 57.1177 130.992C56.9927 130.826 56.8963 130.687 56.8286 130.578H56.7505V133.75H55.8286ZM56.7349 128.5C56.7349 128.953 56.8013 129.353 56.9341 129.699C57.0669 130.043 57.2609 130.312 57.5161 130.508C57.7713 130.701 58.0838 130.797 58.4536 130.797C58.839 130.797 59.1606 130.695 59.4185 130.492C59.6789 130.286 59.8742 130.01 60.0044 129.664C60.1372 129.315 60.2036 128.927 60.2036 128.5C60.2036 128.078 60.1385 127.698 60.0083 127.359C59.8807 127.018 59.6867 126.749 59.4263 126.551C59.1685 126.35 58.8442 126.25 58.4536 126.25C58.0786 126.25 57.7635 126.345 57.5083 126.535C57.2531 126.723 57.0604 126.986 56.9302 127.324C56.8 127.66 56.7349 128.052 56.7349 128.5ZM62.5317 131.5V125.5H63.4224V126.406H63.4849C63.5942 126.109 63.7922 125.868 64.0786 125.684C64.3651 125.499 64.688 125.406 65.0474 125.406C65.1151 125.406 65.1997 125.408 65.3013 125.41C65.4028 125.413 65.4797 125.417 65.5317 125.422V126.359C65.5005 126.352 65.4289 126.34 65.3169 126.324C65.2075 126.306 65.0916 126.297 64.9692 126.297C64.6776 126.297 64.4172 126.358 64.188 126.48C63.9614 126.6 63.7817 126.767 63.6489 126.98C63.5187 127.191 63.4536 127.432 63.4536 127.703V131.5H62.5317ZM68.8794 131.625C68.3377 131.625 67.8625 131.496 67.4536 131.238C67.0474 130.98 66.7297 130.62 66.5005 130.156C66.2739 129.693 66.1606 129.151 66.1606 128.531C66.1606 127.906 66.2739 127.361 66.5005 126.895C66.7297 126.428 67.0474 126.066 67.4536 125.809C67.8625 125.551 68.3377 125.422 68.8794 125.422C69.4211 125.422 69.895 125.551 70.3013 125.809C70.7101 126.066 71.0278 126.428 71.2544 126.895C71.4836 127.361 71.5981 127.906 71.5981 128.531C71.5981 129.151 71.4836 129.693 71.2544 130.156C71.0278 130.62 70.7101 130.98 70.3013 131.238C69.895 131.496 69.4211 131.625 68.8794 131.625ZM68.8794 130.797C69.2909 130.797 69.6294 130.691 69.895 130.48C70.1606 130.27 70.3573 129.992 70.4849 129.648C70.6125 129.305 70.6763 128.932 70.6763 128.531C70.6763 128.13 70.6125 127.757 70.4849 127.41C70.3573 127.064 70.1606 126.784 69.895 126.57C69.6294 126.357 69.2909 126.25 68.8794 126.25C68.4679 126.25 68.1294 126.357 67.8638 126.57C67.5981 126.784 67.4015 127.064 67.2739 127.41C67.1463 127.757 67.0825 128.13 67.0825 128.531C67.0825 128.932 67.1463 129.305 67.2739 129.648C67.4015 129.992 67.5981 130.27 67.8638 130.48C68.1294 130.691 68.4679 130.797 68.8794 130.797ZM77.6968 125.5L75.478 131.5H74.5405L72.3218 125.5H73.3218L74.978 130.281H75.0405L76.6968 125.5H77.6968ZM81.2144 131.625C80.6362 131.625 80.1375 131.497 79.7183 131.242C79.3016 130.984 78.98 130.625 78.7534 130.164C78.5295 129.701 78.4175 129.161 78.4175 128.547C78.4175 127.932 78.5295 127.391 78.7534 126.922C78.98 126.451 79.2951 126.083 79.6987 125.82C80.105 125.555 80.5789 125.422 81.1206 125.422C81.4331 125.422 81.7417 125.474 82.0464 125.578C82.3511 125.682 82.6284 125.852 82.8784 126.086C83.1284 126.318 83.3276 126.625 83.4761 127.008C83.6245 127.391 83.6987 127.862 83.6987 128.422V128.812H79.0737V128.016H82.7612C82.7612 127.677 82.6935 127.375 82.5581 127.109C82.4253 126.844 82.2352 126.634 81.9878 126.48C81.743 126.327 81.4539 126.25 81.1206 126.25C80.7534 126.25 80.4357 126.341 80.1675 126.523C79.9019 126.703 79.6974 126.937 79.5542 127.227C79.411 127.516 79.3394 127.826 79.3394 128.156V128.688C79.3394 129.141 79.4175 129.525 79.5737 129.84C79.7326 130.152 79.9526 130.391 80.2339 130.555C80.5151 130.716 80.842 130.797 81.2144 130.797C81.4565 130.797 81.6753 130.763 81.8706 130.695C82.0685 130.625 82.2391 130.521 82.3823 130.383C82.5256 130.242 82.6362 130.068 82.7144 129.859L83.605 130.109C83.5112 130.411 83.3537 130.677 83.1323 130.906C82.911 131.133 82.6375 131.31 82.312 131.437C81.9865 131.563 81.6206 131.625 81.2144 131.625ZM88.7886 133.75C88.6323 133.75 88.493 133.737 88.3706 133.711C88.2482 133.688 88.1636 133.664 88.1167 133.641L88.3511 132.828C88.575 132.885 88.7729 132.906 88.9448 132.891C89.1167 132.875 89.269 132.798 89.4019 132.66C89.5373 132.525 89.661 132.305 89.7729 132L89.9448 131.531L87.7261 125.5H88.7261L90.3823 130.281H90.4448L92.1011 125.5H93.1011L90.5542 132.375C90.4396 132.685 90.2977 132.941 90.1284 133.145C89.9591 133.35 89.7625 133.503 89.5386 133.602C89.3172 133.701 89.0672 133.75 88.7886 133.75ZM96.5405 131.625C95.9989 131.625 95.5236 131.496 95.1147 131.238C94.7085 130.98 94.3908 130.62 94.1616 130.156C93.9351 129.693 93.8218 129.151 93.8218 128.531C93.8218 127.906 93.9351 127.361 94.1616 126.895C94.3908 126.428 94.7085 126.066 95.1147 125.809C95.5236 125.551 95.9989 125.422 96.5405 125.422C97.0822 125.422 97.5562 125.551 97.9624 125.809C98.3713 126.066 98.689 126.428 98.9155 126.895C99.1447 127.361 99.2593 127.906 99.2593 128.531C99.2593 129.151 99.1447 129.693 98.9155 130.156C98.689 130.62 98.3713 130.98 97.9624 131.238C97.5562 131.496 97.0822 131.625 96.5405 131.625ZM96.5405 130.797C96.952 130.797 97.2905 130.691 97.5562 130.48C97.8218 130.27 98.0184 129.992 98.146 129.648C98.2736 129.305 98.3374 128.932 98.3374 128.531C98.3374 128.13 98.2736 127.757 98.146 127.41C98.0184 127.064 97.8218 126.784 97.5562 126.57C97.2905 126.357 96.952 126.25 96.5405 126.25C96.1291 126.25 95.7905 126.357 95.5249 126.57C95.2593 126.784 95.0627 127.064 94.9351 127.41C94.8075 127.757 94.7437 128.13 94.7437 128.531C94.7437 128.932 94.8075 129.305 94.9351 129.648C95.0627 129.992 95.2593 130.27 95.5249 130.48C95.7905 130.691 96.1291 130.797 96.5405 130.797ZM104.448 129.047V125.5H105.37V131.5H104.448V130.484H104.385C104.245 130.789 104.026 131.048 103.729 131.262C103.432 131.473 103.057 131.578 102.604 131.578C102.229 131.578 101.896 131.496 101.604 131.332C101.312 131.165 101.083 130.915 100.917 130.582C100.75 130.246 100.667 129.823 100.667 129.312V125.5H101.588V129.25C101.588 129.687 101.711 130.036 101.956 130.297C102.203 130.557 102.518 130.687 102.901 130.687C103.13 130.687 103.363 130.629 103.6 130.512C103.84 130.395 104.04 130.215 104.202 129.973C104.366 129.73 104.448 129.422 104.448 129.047ZM107.058 131.5V125.5H107.949V126.406H108.011C108.121 126.109 108.319 125.868 108.605 125.684C108.891 125.499 109.214 125.406 109.574 125.406C109.641 125.406 109.726 125.408 109.828 125.41C109.929 125.413 110.006 125.417 110.058 125.422V126.359C110.027 126.352 109.955 126.34 109.843 126.324C109.734 126.306 109.618 126.297 109.496 126.297C109.204 126.297 108.944 126.358 108.714 126.48C108.488 126.6 108.308 126.767 108.175 126.98C108.045 127.191 107.98 127.432 107.98 127.703V131.5H107.058ZM116.76 131.625C116.182 131.625 115.683 131.497 115.264 131.242C114.847 130.984 114.526 130.625 114.299 130.164C114.075 129.701 113.963 129.161 113.963 128.547C113.963 127.932 114.075 127.391 114.299 126.922C114.526 126.451 114.841 126.083 115.245 125.82C115.651 125.555 116.125 125.422 116.667 125.422C116.979 125.422 117.288 125.474 117.592 125.578C117.897 125.682 118.174 125.852 118.424 126.086C118.674 126.318 118.874 126.625 119.022 127.008C119.17 127.391 119.245 127.862 119.245 128.422V128.812H114.62V128.016H118.307C118.307 127.677 118.239 127.375 118.104 127.109C117.971 126.844 117.781 126.634 117.534 126.48C117.289 126.327 117 126.25 116.667 126.25C116.299 126.25 115.982 126.341 115.713 126.523C115.448 126.703 115.243 126.937 115.1 127.227C114.957 127.516 114.885 127.826 114.885 128.156V128.688C114.885 129.141 114.963 129.525 115.12 129.84C115.278 130.152 115.499 130.391 115.78 130.555C116.061 130.716 116.388 130.797 116.76 130.797C117.002 130.797 117.221 130.763 117.417 130.695C117.614 130.625 117.785 130.521 117.928 130.383C118.071 130.242 118.182 130.068 118.26 129.859L119.151 130.109C119.057 130.411 118.9 130.677 118.678 130.906C118.457 131.133 118.183 131.31 117.858 131.437C117.532 131.563 117.167 131.625 116.76 131.625ZM121.173 125.5L122.611 127.953L124.048 125.5H125.111L123.173 128.5L125.111 131.5H124.048L122.611 129.172L121.173 131.5H120.111L122.017 128.5L120.111 125.5H121.173ZM126.426 133.75V125.5H127.317V126.453H127.426C127.494 126.349 127.588 126.216 127.708 126.055C127.83 125.891 128.004 125.745 128.231 125.617C128.46 125.487 128.77 125.422 129.161 125.422C129.666 125.422 130.111 125.548 130.497 125.801C130.882 126.053 131.183 126.411 131.399 126.875C131.615 127.339 131.723 127.885 131.723 128.516C131.723 129.151 131.615 129.702 131.399 130.168C131.183 130.632 130.883 130.991 130.5 131.246C130.118 131.499 129.676 131.625 129.176 131.625C128.791 131.625 128.482 131.561 128.25 131.434C128.019 131.303 127.84 131.156 127.715 130.992C127.59 130.826 127.494 130.687 127.426 130.578H127.348V133.75H126.426ZM127.333 128.5C127.333 128.953 127.399 129.353 127.532 129.699C127.665 130.043 127.859 130.312 128.114 130.508C128.369 130.701 128.681 130.797 129.051 130.797C129.437 130.797 129.758 130.695 130.016 130.492C130.277 130.286 130.472 130.01 130.602 129.664C130.735 129.315 130.801 128.927 130.801 128.5C130.801 128.078 130.736 127.698 130.606 127.359C130.478 127.018 130.284 126.749 130.024 126.551C129.766 126.35 129.442 126.25 129.051 126.25C128.676 126.25 128.361 126.345 128.106 126.535C127.851 126.723 127.658 126.986 127.528 127.324C127.398 127.66 127.333 128.052 127.333 128.5ZM135.645 131.625C135.067 131.625 134.568 131.497 134.149 131.242C133.732 130.984 133.411 130.625 133.184 130.164C132.96 129.701 132.848 129.161 132.848 128.547C132.848 127.932 132.96 127.391 133.184 126.922C133.411 126.451 133.726 126.083 134.129 125.82C134.536 125.555 135.01 125.422 135.551 125.422C135.864 125.422 136.172 125.474 136.477 125.578C136.782 125.682 137.059 125.852 137.309 126.086C137.559 126.318 137.758 126.625 137.907 127.008C138.055 127.391 138.129 127.862 138.129 128.422V128.812H133.504V128.016H137.192C137.192 127.677 137.124 127.375 136.989 127.109C136.856 126.844 136.666 126.634 136.418 126.48C136.174 126.327 135.885 126.25 135.551 126.25C135.184 126.25 134.866 126.341 134.598 126.523C134.333 126.703 134.128 126.937 133.985 127.227C133.842 127.516 133.77 127.826 133.77 128.156V128.688C133.77 129.141 133.848 129.525 134.004 129.84C134.163 130.152 134.383 130.391 134.665 130.555C134.946 130.716 135.273 130.797 135.645 130.797C135.887 130.797 136.106 130.763 136.301 130.695C136.499 130.625 136.67 130.521 136.813 130.383C136.956 130.242 137.067 130.068 137.145 129.859L138.036 130.109C137.942 130.411 137.784 130.677 137.563 130.906C137.342 131.133 137.068 131.31 136.743 131.437C136.417 131.563 136.051 131.625 135.645 131.625ZM139.532 131.5V125.5H140.422V126.406H140.485C140.594 126.109 140.792 125.868 141.079 125.684C141.365 125.499 141.688 125.406 142.047 125.406C142.115 125.406 142.2 125.408 142.301 125.41C142.403 125.413 142.48 125.417 142.532 125.422V126.359C142.5 126.352 142.429 126.34 142.317 126.324C142.208 126.306 142.092 126.297 141.969 126.297C141.678 126.297 141.417 126.358 141.188 126.48C140.961 126.6 140.782 126.767 140.649 126.98C140.519 127.191 140.454 127.432 140.454 127.703V131.5H139.532ZM143.625 131.5V125.5H144.546V131.5H143.625ZM144.093 124.5C143.914 124.5 143.759 124.439 143.628 124.316C143.501 124.194 143.437 124.047 143.437 123.875C143.437 123.703 143.501 123.556 143.628 123.434C143.759 123.311 143.914 123.25 144.093 123.25C144.273 123.25 144.427 123.311 144.554 123.434C144.684 123.556 144.75 123.703 144.75 123.875C144.75 124.047 144.684 124.194 144.554 124.316C144.427 124.439 144.273 124.5 144.093 124.5ZM148.75 131.625C148.172 131.625 147.674 131.497 147.254 131.242C146.838 130.984 146.516 130.625 146.29 130.164C146.066 129.701 145.954 129.161 145.954 128.547C145.954 127.932 146.066 127.391 146.29 126.922C146.516 126.451 146.831 126.083 147.235 125.82C147.641 125.555 148.115 125.422 148.657 125.422C148.969 125.422 149.278 125.474 149.583 125.578C149.887 125.682 150.165 125.852 150.415 126.086C150.665 126.318 150.864 126.625 151.012 127.008C151.161 127.391 151.235 127.862 151.235 128.422V128.812H146.61V128.016H150.297C150.297 127.677 150.23 127.375 150.094 127.109C149.961 126.844 149.771 126.634 149.524 126.48C149.279 126.327 148.99 126.25 148.657 126.25C148.29 126.25 147.972 126.341 147.704 126.523C147.438 126.703 147.234 126.937 147.09 127.227C146.947 127.516 146.875 127.826 146.875 128.156V128.688C146.875 129.141 146.954 129.525 147.11 129.84C147.269 130.152 147.489 130.391 147.77 130.555C148.051 130.716 148.378 130.797 148.75 130.797C148.993 130.797 149.211 130.763 149.407 130.695C149.605 130.625 149.775 130.521 149.918 130.383C150.062 130.242 150.172 130.068 150.25 129.859L151.141 130.109C151.047 130.411 150.89 130.677 150.668 130.906C150.447 131.133 150.174 131.31 149.848 131.437C149.523 131.563 149.157 131.625 148.75 131.625ZM153.559 127.891V131.5H152.637V125.5H153.528V126.437H153.606C153.747 126.133 153.96 125.888 154.247 125.703C154.533 125.516 154.903 125.422 155.356 125.422C155.762 125.422 156.118 125.505 156.422 125.672C156.727 125.836 156.964 126.086 157.133 126.422C157.303 126.755 157.387 127.177 157.387 127.688V131.5H156.465V127.75C156.465 127.279 156.343 126.911 156.098 126.648C155.853 126.383 155.517 126.25 155.09 126.25C154.796 126.25 154.533 126.314 154.301 126.441C154.072 126.569 153.891 126.755 153.758 127C153.625 127.245 153.559 127.542 153.559 127.891ZM161.509 131.625C160.947 131.625 160.462 131.492 160.056 131.227C159.65 130.961 159.337 130.595 159.119 130.129C158.9 129.663 158.791 129.13 158.791 128.531C158.791 127.922 158.903 127.384 159.126 126.918C159.353 126.449 159.668 126.083 160.072 125.82C160.478 125.555 160.952 125.422 161.494 125.422C161.916 125.422 162.296 125.5 162.634 125.656C162.973 125.812 163.25 126.031 163.466 126.312C163.682 126.594 163.817 126.922 163.869 127.297H162.947C162.876 127.023 162.72 126.781 162.478 126.57C162.238 126.357 161.916 126.25 161.509 126.25C161.15 126.25 160.835 126.344 160.564 126.531C160.296 126.716 160.086 126.978 159.935 127.316C159.787 127.652 159.712 128.047 159.712 128.5C159.712 128.964 159.785 129.367 159.931 129.711C160.08 130.055 160.288 130.322 160.556 130.512C160.827 130.702 161.145 130.797 161.509 130.797C161.749 130.797 161.966 130.755 162.162 130.672C162.357 130.589 162.522 130.469 162.658 130.312C162.793 130.156 162.889 129.969 162.947 129.75H163.869C163.817 130.104 163.688 130.423 163.482 130.707C163.279 130.988 163.009 131.212 162.673 131.379C162.34 131.543 161.952 131.625 161.509 131.625ZM167.732 131.625C167.154 131.625 166.655 131.497 166.236 131.242C165.819 130.984 165.498 130.625 165.271 130.164C165.047 129.701 164.935 129.161 164.935 128.547C164.935 127.932 165.047 127.391 165.271 126.922C165.498 126.451 165.813 126.083 166.216 125.82C166.623 125.555 167.097 125.422 167.638 125.422C167.951 125.422 168.259 125.474 168.564 125.578C168.869 125.682 169.146 125.852 169.396 126.086C169.646 126.318 169.845 126.625 169.994 127.008C170.142 127.391 170.216 127.862 170.216 128.422V128.812H165.591V128.016H169.279C169.279 127.677 169.211 127.375 169.076 127.109C168.943 126.844 168.753 126.634 168.505 126.48C168.261 126.327 167.972 126.25 167.638 126.25C167.271 126.25 166.953 126.341 166.685 126.523C166.419 126.703 166.215 126.937 166.072 127.227C165.929 127.516 165.857 127.826 165.857 128.156V128.688C165.857 129.141 165.935 129.525 166.091 129.84C166.25 130.152 166.47 130.391 166.751 130.555C167.033 130.716 167.36 130.797 167.732 130.797C167.974 130.797 168.193 130.763 168.388 130.695C168.586 130.625 168.757 130.521 168.9 130.383C169.043 130.242 169.154 130.068 169.232 129.859L170.123 130.109C170.029 130.411 169.871 130.677 169.65 130.906C169.429 131.133 169.155 131.31 168.83 131.437C168.504 131.563 168.138 131.625 167.732 131.625Z" fill="#C8C0B4"/>
</svg>
