<svg width="107" height="107" viewBox="0 0 107 107" fill="none" xmlns="http://www.w3.org/2000/svg">
<path d="M92.3915 0H14.2141C6.36386 0 0 6.36502 0 14.2167V92.4083C0 100.26 6.36386 106.625 14.2141 106.625H92.3915C100.242 106.625 106.606 100.26 106.606 92.4083V14.2167C106.606 6.36502 100.242 0 92.3915 0Z" fill="#2C221A"/>
<path d="M41.754 15.9937H20.4329C17.9797 15.9937 15.991 17.9827 15.991 20.4364V41.7614C15.991 44.215 17.9797 46.2041 20.4329 46.2041H41.754C44.2072 46.2041 46.1959 44.215 46.1959 41.7614V20.4364C46.1959 17.9827 44.2072 15.9937 41.754 15.9937Z" stroke="#D4C4B0" stroke-width="1.4"/>
<path d="M79.0658 15.9937H57.7446C55.2914 15.9937 53.3027 17.9827 53.3027 20.4364V41.7614C53.3027 44.215 55.2914 46.2041 57.7446 46.2041H79.0658C81.519 46.2041 83.5077 44.215 83.5077 41.7614V20.4364C83.5077 17.9827 81.519 15.9937 79.0658 15.9937Z" fill="#D4C4B0" fill-opacity="0.35"/>
<path d="M41.754 53.3125H20.4329C17.9797 53.3125 15.991 55.3016 15.991 57.7552V79.0802C15.991 81.5338 17.9797 83.5229 20.4329 83.5229H41.754C44.2072 83.5229 46.1959 81.5338 46.1959 79.0802V57.7552C46.1959 55.3016 44.2072 53.3125 41.754 53.3125Z" fill="#D4C4B0" fill-opacity="0.35"/>
<path d="M79.0658 53.3125H57.7446C55.2914 53.3125 53.3027 55.3016 53.3027 57.7552V79.0802C53.3027 81.5338 55.2914 83.5229 57.7446 83.5229H79.0658C81.519 83.5229 83.5077 81.5338 83.5077 79.0802V57.7552C83.5077 55.3016 81.519 53.3125 79.0658 53.3125Z" stroke="#D4C4B0" stroke-width="1.4"/>
</svg>
