<svg width="99" height="99" viewBox="0 0 99 99" fill="none" xmlns="http://www.w3.org/2000/svg">
<path d="M85.0867 0.5H13.5133C6.32627 0.5 0.5 6.32733 0.5 13.5157V85.102C0.5 92.2904 6.32627 98.1177 13.5133 98.1177H85.0867C92.2737 98.1177 98.1 92.2904 98.1 85.102V13.5157C98.1 6.32733 92.2737 0.5 85.0867 0.5Z" fill="white" stroke="#2C221A" stroke-opacity="0.18"/>
<path d="M40.0867 18.5044H20.5667C18.3207 18.5044 16.5 20.3254 16.5 22.5718V42.0953C16.5 44.3417 18.3207 46.1628 20.5667 46.1628H40.0867C42.3326 46.1628 44.1533 44.3417 44.1533 42.0953V22.5718C44.1533 20.3254 42.3326 18.5044 40.0867 18.5044Z" stroke="#2C221A" stroke-width="1.4"/>
<path d="M74.2468 18.5044H54.7268C52.4809 18.5044 50.6602 20.3254 50.6602 22.5718V42.0953C50.6602 44.3417 52.4809 46.1628 54.7268 46.1628H74.2468C76.4928 46.1628 78.3135 44.3417 78.3135 42.0953V22.5718C78.3135 20.3254 76.4928 18.5044 74.2468 18.5044Z" fill="#2C221A" fill-opacity="0.22"/>
<path d="M40.0867 52.6704H20.5667C18.3207 52.6704 16.5 54.4914 16.5 56.7378V76.2614C16.5 78.5077 18.3207 80.3288 20.5667 80.3288H40.0867C42.3326 80.3288 44.1533 78.5077 44.1533 76.2614V56.7378C44.1533 54.4914 42.3326 52.6704 40.0867 52.6704Z" fill="#2C221A" fill-opacity="0.22"/>
<path d="M74.2468 52.6704H54.7268C52.4809 52.6704 50.6602 54.4914 50.6602 56.7378V76.2614C50.6602 78.5077 52.4809 80.3288 54.7268 80.3288H74.2468C76.4928 80.3288 78.3135 78.5077 78.3135 76.2614V56.7378C78.3135 54.4914 76.4928 52.6704 74.2468 52.6704Z" stroke="#2C221A" stroke-width="1.4"/>
</svg>
