<svg width="131" height="28" viewBox="0 0 131 28" fill="none" xmlns="http://www.w3.org/2000/svg">
<path d="M50.6548 11.1378C50.598 10.5649 50.3542 10.1198 49.9233 9.80256C49.4924 9.48532 48.9077 9.3267 48.169 9.3267C47.6671 9.3267 47.2434 9.39773 46.8977 9.53977C46.5521 9.67708 46.2869 9.86884 46.1023 10.1151C45.9223 10.3613 45.8324 10.6406 45.8324 10.9531C45.8229 11.2135 45.8774 11.4408 45.9957 11.6349C46.1188 11.8291 46.2869 11.9972 46.5 12.1392C46.7131 12.2765 46.9593 12.3973 47.2386 12.5014C47.518 12.6009 47.8163 12.6861 48.1335 12.7571L49.4403 13.0696C50.0748 13.2116 50.6572 13.401 51.1875 13.6378C51.7178 13.8745 52.1771 14.1657 52.5653 14.5114C52.9536 14.857 53.2543 15.2642 53.4673 15.733C53.6851 16.2017 53.7964 16.7391 53.8011 17.3452C53.7964 18.2353 53.5691 19.0071 53.1193 19.6605C52.6742 20.3092 52.0303 20.8134 51.1875 21.1733C50.3494 21.5284 49.3385 21.706 48.1548 21.706C46.9806 21.706 45.9579 21.526 45.0866 21.1662C44.2202 20.8063 43.5431 20.2737 43.0554 19.5682C42.5724 18.858 42.3191 17.9796 42.2955 16.9332H45.2713C45.3045 17.4209 45.4441 17.8281 45.6903 18.1548C45.9413 18.4768 46.2751 18.7206 46.6918 18.8864C47.1132 19.0473 47.589 19.1278 48.1193 19.1278C48.6402 19.1278 49.0923 19.0521 49.4759 18.9006C49.8641 18.7491 50.1648 18.5384 50.3778 18.2685C50.5909 17.9986 50.6974 17.6884 50.6974 17.3381C50.6974 17.0114 50.6004 16.7367 50.4062 16.5142C50.2169 16.2917 49.9375 16.1023 49.5682 15.946C49.2036 15.7898 48.7562 15.6477 48.2259 15.5199L46.642 15.1222C45.4157 14.8239 44.4474 14.3575 43.7372 13.723C43.027 13.0885 42.6742 12.2339 42.679 11.1591C42.6742 10.2784 42.9086 9.509 43.3821 8.85085C43.8603 8.19271 44.5161 7.67898 45.3494 7.30966C46.1828 6.94034 47.1297 6.75568 48.1903 6.75568C49.2699 6.75568 50.2121 6.94034 51.017 7.30966C51.8267 7.67898 52.4564 8.19271 52.9062 8.85085C53.3561 9.509 53.5881 10.2713 53.6023 11.1378H50.6548ZM59.1438 21.5L54.9819 6.95455H58.3413L60.7489 17.0611H60.8697L63.5259 6.95455H66.4023L69.0515 17.0824H69.1793L71.587 6.95455H74.9464L70.7844 21.5H67.7873L65.0174 11.9901H64.9038L62.141 21.5H59.1438ZM77.6346 21.5H74.3391L79.3604 6.95455H83.3235L88.3377 21.5H85.0423L81.3988 10.2784H81.2852L77.6346 21.5ZM77.4286 15.7827H85.2127V18.1832H77.4286V15.7827ZM99.0497 11.6562C98.9503 11.3106 98.8106 11.0052 98.6307 10.7401C98.4508 10.4702 98.2306 10.2429 97.9702 10.0582C97.7145 9.86884 97.4209 9.72443 97.0895 9.625C96.7628 9.52557 96.4006 9.47585 96.0028 9.47585C95.2595 9.47585 94.6061 9.66051 94.0426 10.0298C93.4839 10.3991 93.0483 10.9366 92.7358 11.642C92.4233 12.3428 92.267 13.1998 92.267 14.2131C92.267 15.2263 92.4209 16.0881 92.7287 16.7983C93.0365 17.5085 93.4721 18.0507 94.0355 18.4247C94.599 18.794 95.2642 18.9787 96.0312 18.9787C96.7273 18.9787 97.3215 18.8556 97.8139 18.6094C98.3111 18.3584 98.6899 18.0057 98.9503 17.5511C99.2154 17.0966 99.348 16.5592 99.348 15.9389L99.973 16.0312H96.223V13.7159H102.31V15.5483C102.31 16.8267 102.04 17.9252 101.5 18.8438C100.96 19.7576 100.217 20.4631 99.2699 20.9602C98.3229 21.4527 97.2386 21.6989 96.017 21.6989C94.6534 21.6989 93.4555 21.3982 92.4233 20.7969C91.3911 20.1908 90.5862 19.3314 90.0085 18.2188C89.4356 17.1013 89.1491 15.7756 89.1491 14.2415C89.1491 13.0625 89.3196 12.0114 89.6605 11.0881C90.0062 10.16 90.4891 9.37405 91.1094 8.73011C91.7296 8.08617 92.4517 7.59612 93.2756 7.25994C94.0994 6.92377 94.992 6.75568 95.9531 6.75568C96.777 6.75568 97.544 6.87642 98.2543 7.1179C98.9645 7.35464 99.5942 7.69081 100.143 8.12642C100.697 8.56203 101.15 9.08049 101.5 9.68182C101.85 10.2784 102.075 10.9366 102.175 11.6562H99.0497ZM116.786 6.95455V21.5H114.13L107.801 12.3452H107.695V21.5H104.62V6.95455H107.319L113.597 16.1023H113.725V6.95455H116.786ZM119.327 21.5V6.95455H129.128V9.49006H122.402V12.956H128.624V15.4915H122.402V18.9645H129.156V21.5H119.327Z" fill="#2C2720"/>
<path d="M22.6786 0.5H5.32143C2.65863 0.5 0.5 2.65863 0.5 5.32143V22.6786C0.5 25.3414 2.65863 27.5 5.32143 27.5H22.6786C25.3414 27.5 27.5 25.3414 27.5 22.6786V5.32143C27.5 2.65863 25.3414 0.5 22.6786 0.5Z" fill="white" stroke="#2C221A" stroke-opacity="0.18"/>
<path d="M10.6251 4.83936H6.76793C5.70281 4.83936 4.83936 5.70281 4.83936 6.76793V10.6251C4.83936 11.6902 5.70281 12.5536 6.76793 12.5536H10.6251C11.6902 12.5536 12.5536 11.6902 12.5536 10.6251V6.76793C12.5536 5.70281 11.6902 4.83936 10.6251 4.83936Z" stroke="#2C221A" stroke-width="1.3"/>
<path d="M21.2322 4.83936H17.3751C16.31 4.83936 15.4465 5.70281 15.4465 6.76793V10.6251C15.4465 11.6902 16.31 12.5536 17.3751 12.5536H21.2322C22.2974 12.5536 23.1608 11.6902 23.1608 10.6251V6.76793C23.1608 5.70281 22.2974 4.83936 21.2322 4.83936Z" fill="#2C221A" fill-opacity="0.22"/>
<path d="M10.6251 15.4465H6.76793C5.70281 15.4465 4.83936 16.31 4.83936 17.3751V21.2322C4.83936 22.2974 5.70281 23.1608 6.76793 23.1608H10.6251C11.6902 23.1608 12.5536 22.2974 12.5536 21.2322V17.3751C12.5536 16.31 11.6902 15.4465 10.6251 15.4465Z" fill="#2C221A" fill-opacity="0.22"/>
<path d="M21.2322 15.4465H17.3751C16.31 15.4465 15.4465 16.31 15.4465 17.3751V21.2322C15.4465 22.2974 16.31 23.1608 17.3751 23.1608H21.2322C22.2974 23.1608 23.1608 22.2974 23.1608 21.2322V17.3751C23.1608 16.31 22.2974 15.4465 21.2322 15.4465Z" stroke="#2C221A" stroke-width="1.3"/>
</svg>
